<svg version="1.1" id="Layer_1" xmlns="http://www.w3.org/2000/svg" xmlns:xlink="http://www.w3.org/1999/xlink" x="0px" y="0px"
	 width="100%" viewBox="0 0 500 500" enable-background="new 0 0 500 500" xml:space="preserve">
<path fill="#FFFFFF" opacity="1.000000" stroke="none" 
	d="
M315.000000,501.000000 
	C210.000031,501.000000 105.500053,501.000000 1.000056,501.000000 
	C1.000037,334.333405 1.000037,167.666794 1.000019,1.000146 
	C167.666565,1.000097 334.333130,1.000097 500.999756,1.000049 
	C500.999847,167.666519 500.999847,334.333038 500.999939,500.999786 
	C439.166656,501.000000 377.333344,501.000000 315.000000,501.000000 
M177.775223,209.145615 
	C177.948242,208.832245 178.121262,208.518875 178.135773,208.220795 
	C178.135773,208.220795 178.283737,208.279648 178.876297,208.003815 
	C180.988083,205.695190 183.099854,203.386551 185.634033,200.995010 
	C185.910172,200.846222 186.065048,200.615906 186.654221,200.110046 
	C186.853317,199.784470 187.052414,199.458893 187.147034,199.167343 
	C187.147034,199.167343 187.228256,199.241364 187.715485,199.091522 
	C187.900558,198.818787 188.085632,198.546036 188.223572,198.182571 
	C188.223572,198.182571 188.170914,198.270233 188.696930,198.062256 
	C188.862320,197.726456 189.027710,197.390656 189.752014,196.832809 
	C190.500717,196.175156 191.249420,195.517487 192.621490,194.884933 
	C193.133453,194.274994 193.645416,193.665054 194.828995,192.916504 
	C202.712708,187.796600 210.596420,182.676682 219.022751,177.378052 
	C219.378555,176.951660 219.734360,176.525269 220.771545,176.060135 
	C221.876297,175.407501 222.981064,174.754868 224.785477,174.033905 
	C226.599670,173.104385 228.413864,172.174866 230.947006,171.160049 
	C234.108231,169.577820 237.269455,167.995590 240.764420,166.379166 
	C240.764420,166.379166 240.964584,166.109924 241.553238,166.058762 
	C241.786407,165.774292 242.019577,165.489822 242.230072,165.285568 
	C242.230072,165.285568 242.312637,165.297043 242.976089,165.080734 
	C245.351273,161.076675 247.726456,157.072601 250.027222,153.033249 
	C250.027222,153.033249 250.036621,153.115051 250.853043,153.043228 
	C253.297821,152.727036 255.755081,152.075531 258.184723,152.165955 
	C262.930298,152.342560 267.555603,156.050232 268.757202,160.676834 
	C270.019867,165.538559 269.756470,170.273834 265.581329,173.880478 
	C261.624420,177.298523 256.643433,180.025009 252.151413,176.690887 
	C246.738480,172.673233 242.636765,174.457458 237.870300,176.996140 
	C232.015457,180.114487 225.901367,182.758713 220.124268,186.007797 
	C208.842072,192.353058 197.816010,199.112717 188.281403,208.992447 
	C170.592438,226.365585 164.647217,247.459229 168.342178,271.652557 
	C168.807053,274.696381 169.848984,277.184052 173.085327,277.854706 
	C180.789047,279.451050 188.524628,280.893616 196.923477,282.620087 
	C197.609406,282.447998 198.295319,282.275909 199.752258,282.431152 
	C202.171509,282.213409 204.590775,281.995667 207.891876,281.881439 
	C217.916534,280.205872 227.941208,278.530273 238.790649,276.906952 
	C246.101151,275.873718 253.412476,274.846008 260.719116,273.786194 
	C260.997375,273.745789 261.230743,273.395569 261.914612,273.394409 
	C262.472168,273.174438 263.029694,272.954468 264.404480,272.827026 
	C264.939117,272.725677 265.473755,272.624329 266.776215,272.720337 
	C267.569031,272.739807 268.361847,272.759247 269.364288,273.362701 
	C269.750183,274.068024 270.136078,274.773346 270.591797,276.135437 
	C270.787292,276.525604 270.982819,276.915741 271.202972,278.174561 
	C271.423859,282.849274 271.644745,287.523956 271.315613,292.952850 
	C270.164703,297.271118 269.013824,301.589417 267.320251,306.295715 
	C263.859558,311.311310 260.716339,316.588745 256.853210,321.272430 
	C252.578110,326.455536 247.644272,331.095306 242.987762,335.992798 
	C242.987762,335.992798 242.969650,336.001465 242.469711,336.118591 
	C242.273438,336.389130 242.077164,336.659698 241.223160,337.096649 
	C223.017502,352.217010 202.354843,363.592072 181.618271,374.854462 
	C181.945511,375.499908 182.272766,376.145386 182.600021,376.790833 
	C190.066208,373.907990 197.532394,371.025146 205.658783,368.137421 
	C209.438705,366.444946 213.218613,364.752472 217.032776,363.050781 
	C217.032776,363.050781 217.063690,363.033447 217.785873,363.006561 
	C220.292206,361.723175 222.798523,360.439789 225.704926,359.157990 
	C225.704926,359.157990 226.019012,358.910126 226.755219,358.912231 
	C245.257187,350.684113 262.471222,340.221680 279.636566,328.731903 
	C280.106262,328.229523 280.575989,327.727173 281.648621,326.994598 
	C281.805237,326.847076 281.961853,326.699585 282.728851,326.488098 
	C288.198059,321.702698 293.667297,316.917297 299.607697,311.957275 
	C299.779846,311.677429 299.951996,311.397614 300.602020,310.958740 
	C300.778473,310.681732 300.954926,310.404724 301.805206,310.008789 
	C305.471710,305.744507 309.138184,301.480255 313.349426,296.769043 
	C320.556000,287.060547 326.287567,276.569702 328.528870,264.608948 
	C331.122620,250.767365 325.816162,237.754074 311.673798,232.275803 
	C311.124512,232.161499 310.575226,232.047180 309.534058,231.512222 
	C308.692780,231.405838 307.851501,231.299454 306.393280,230.727280 
	C305.134552,230.514191 303.875854,230.301102 302.613159,229.845703 
	C302.613159,229.845703 302.366455,230.013657 301.503479,229.512634 
	C295.355286,229.568039 289.207092,229.623428 282.525879,229.477509 
	C282.038666,229.708969 281.551483,229.940430 280.210052,230.063171 
	C278.809296,230.284180 277.408539,230.505203 275.491577,230.527969 
	C275.009888,230.750702 274.528229,230.973434 273.286591,231.049194 
	C272.533112,231.185806 271.779602,231.322418 270.349091,231.290878 
	C268.616425,231.721497 266.883759,232.152115 264.454865,232.432587 
	C263.994232,232.515366 263.533600,232.598129 262.434021,232.467117 
	C256.633392,233.690048 250.832779,234.912964 244.511169,236.056290 
	C244.358871,236.144058 244.206589,236.231827 243.203140,236.234039 
	C235.868149,236.448044 228.533142,236.662048 220.774597,236.429153 
	C220.184631,236.285706 219.594666,236.142258 218.721283,235.467438 
	C218.204636,235.175522 217.687988,234.883591 216.955948,233.936920 
	C216.692444,233.563202 216.428955,233.189468 216.354660,232.554260 
	C216.349915,232.298309 216.222260,232.143356 216.029022,231.278122 
	C216.129486,229.928436 216.229950,228.578751 216.826065,226.813126 
	C217.920990,225.231781 219.015930,223.650436 220.037872,222.027740 
	C220.037872,222.027740 220.045227,222.111313 220.570328,221.958755 
	C220.767883,221.664536 220.965439,221.370316 221.058533,221.066055 
	C221.058533,221.066055 221.076111,221.169495 221.608826,221.056442 
	C221.852417,220.827805 222.095993,220.599167 222.217529,220.402344 
	C222.217529,220.402344 222.321884,220.473175 222.990829,220.389908 
	C223.513748,219.968445 224.036652,219.546982 225.221542,219.041534 
	C232.852921,214.739990 240.484314,210.438446 248.062256,206.086868 
	C248.062256,206.086868 248.056793,206.159439 248.701340,206.123062 
	C249.180695,205.783859 249.660034,205.444656 250.055756,205.077545 
	C250.055756,205.077545 250.057480,205.165695 250.706253,205.128036 
	C251.185272,204.787735 251.664276,204.447433 252.042862,204.071442 
	C252.042862,204.071442 252.094971,204.164429 252.669373,204.151855 
	C256.161804,202.451767 259.654236,200.751678 263.589203,199.032654 
	C263.589203,199.032654 264.009552,198.893158 264.736145,198.921936 
	C267.213959,197.662323 269.691772,196.402710 272.075562,195.123154 
	C272.075562,195.123154 272.099579,195.216217 272.743469,195.223053 
	C273.213470,194.835022 273.683472,194.446976 274.895660,194.097595 
	C277.633789,192.758621 280.371918,191.419632 283.030212,190.046341 
	C283.030212,190.046341 283.046875,190.131592 283.768494,190.121796 
	C285.231934,189.458923 286.695404,188.796066 288.059387,188.105621 
	C288.059387,188.105621 288.069000,188.208374 288.702850,188.192581 
	C289.197784,187.853302 289.692719,187.514023 290.071960,187.194321 
	C290.071960,187.194321 290.175140,187.250198 290.895813,187.201889 
	C292.984589,186.179382 295.073364,185.156876 297.054810,184.132095 
	C297.054810,184.132095 297.129547,184.209167 297.867035,184.170395 
	C300.622620,182.814957 303.378204,181.459534 306.049591,180.070450 
	C306.049591,180.070450 306.042267,180.160797 306.783600,180.128845 
	C307.401459,179.805008 308.019348,179.481186 309.345795,179.248932 
	C316.568237,176.169144 323.790680,173.089355 331.644165,170.029282 
	C332.448975,169.423233 333.253815,168.817169 334.760681,168.157852 
	C335.536896,167.796005 336.313141,167.434174 337.019104,167.025024 
	C337.019104,167.025024 337.033020,167.108566 337.723877,167.100266 
	C338.519775,166.763855 339.315643,166.427444 340.017029,166.051956 
	C340.017029,166.051956 340.069763,166.139557 340.563721,166.123611 
	C340.563721,166.123611 340.987915,165.869995 341.698212,165.756668 
	C355.352142,160.125031 369.006042,154.493408 383.484680,148.521622 
	C380.768372,147.459930 379.110657,146.681381 377.376587,146.153915 
	C353.750397,138.967331 330.142395,131.718628 306.465393,124.703003 
	C297.058594,121.915718 287.493134,119.663918 277.409973,116.968689 
	C276.900848,116.640694 276.391724,116.312706 275.615753,115.331894 
	C273.763672,114.849281 271.911621,114.366669 270.016541,113.966492 
	C270.016541,113.966492 270.102020,113.929909 269.611542,113.404984 
	C267.737671,112.937149 265.863800,112.469307 263.775726,111.792183 
	C263.775726,111.792183 263.488251,111.876030 262.929596,111.312752 
	C257.641815,109.768967 252.354050,108.225182 246.041794,106.382294 
	C248.539322,115.946037 250.767334,124.477737 252.884369,133.658020 
	C252.925735,133.873428 252.967087,134.088821 252.659286,134.442047 
	C252.457932,134.603058 252.305878,134.801834 252.085373,134.975845 
	C252.085373,134.975845 252.023468,135.093903 251.432037,135.068573 
	C250.950974,135.377258 250.469894,135.685944 249.999390,136.001221 
	C249.999390,136.001221 249.998199,135.990387 249.335449,136.044388 
	C249.013214,136.322906 248.690964,136.601425 248.251892,136.744293 
	C248.251892,136.744293 248.085510,136.810318 247.336533,136.838135 
	C246.695648,137.180878 246.054764,137.523621 245.198944,137.767044 
	C245.198944,137.767044 245.028137,137.931030 244.341278,137.944214 
	C243.752579,138.255936 243.163879,138.567657 242.245880,138.844315 
	C242.245880,138.844315 242.003632,139.070068 241.384308,139.104813 
	C241.077927,139.366806 240.771530,139.628784 240.209976,139.796921 
	C240.209976,139.796921 240.026093,139.997192 239.412643,139.991455 
	C238.917496,140.312180 238.422333,140.632904 237.984573,140.995010 
	C237.984573,140.995010 237.980072,140.924377 237.271454,140.958832 
	C236.023972,141.599060 234.776505,142.239288 233.239334,142.813309 
	C233.239334,142.813309 233.023987,143.018051 232.470795,143.003052 
	C232.214584,143.234924 231.958374,143.466797 231.841522,143.712387 
	C231.841522,143.712387 231.767593,143.593460 231.118088,143.646194 
	C230.386917,144.081390 229.655731,144.516586 228.988815,144.996490 
	C228.988815,144.996490 228.959045,144.924103 228.215683,144.957184 
	C220.114853,149.272705 212.014023,153.588226 203.211746,158.002701 
	C200.403397,159.666428 197.272415,160.957489 194.843765,163.059860 
	C185.446060,171.195038 176.272186,179.588806 166.396835,188.183258 
	C163.918274,191.779755 161.439697,195.376251 159.004364,198.993134 
	C159.004364,198.993134 158.970261,198.957947 158.402481,199.320267 
	C156.911179,202.547241 155.419876,205.774200 153.387619,209.547089 
	C153.305130,210.047516 153.222656,210.547928 152.717773,211.638123 
	C151.606934,216.090958 150.496078,220.543793 149.158798,225.665924 
	C149.196579,226.132690 149.234360,226.599472 149.071442,227.966385 
	C149.129776,232.288300 149.188095,236.610214 149.150574,241.639069 
	C149.267853,242.093079 149.385147,242.547073 149.510437,243.767105 
	C151.039383,252.777054 153.508743,261.369049 160.976028,269.469208 
	C158.644684,252.769058 160.698822,238.082520 167.133545,224.092606 
	C167.133545,224.092606 167.172531,224.189148 167.692139,223.839676 
	C168.110153,222.893707 168.528168,221.947723 169.170624,220.864380 
	C169.170624,220.864380 169.131012,220.604233 169.738861,220.235016 
	C170.252014,219.195236 170.765152,218.155457 171.141617,217.138046 
	C171.141617,217.138046 171.218094,217.253510 171.748978,216.998764 
	C172.132172,216.333893 172.515366,215.669022 173.149155,214.849869 
	C173.149155,214.849869 173.126450,214.556442 173.675827,214.225815 
	C173.866272,213.854355 174.056717,213.482910 174.129532,213.157166 
	C174.129532,213.157166 174.217499,213.247650 174.792099,212.974594 
	C175.311020,212.061859 175.829941,211.149124 176.216858,210.182846 
	C176.216858,210.182846 176.251053,210.321121 176.779709,210.162598 
	C176.953033,209.852325 177.126358,209.542053 177.164764,209.169876 
	C177.164764,209.169876 177.242203,209.296524 177.775223,209.145615 
z"/>
<path fill="#C4267F" opacity="1.000000" stroke="none" 
	d="
M253.008453,134.304214 
	C252.967087,134.088821 252.925735,133.873428 253.221252,133.080597 
	C253.185638,129.951752 252.967484,127.365944 252.408112,124.856194 
	C251.279999,119.794632 249.966324,114.774422 248.644150,109.390930 
	C254.250046,110.329430 258.869141,111.102730 263.488251,111.876030 
	C263.488251,111.876030 263.775726,111.792183 264.062378,112.225952 
	C266.266663,113.083122 268.184357,113.506516 270.102020,113.929909 
	C270.102020,113.929909 270.016541,113.966492 270.083191,114.308853 
	C272.060730,115.095718 273.971680,115.540222 275.882599,115.984718 
	C276.391724,116.312706 276.900848,116.640694 277.694824,117.462524 
	C277.479736,120.185158 276.979858,122.413940 276.388489,125.050591 
	C272.668488,123.995148 269.169739,123.002480 265.670990,122.009811 
	C268.160370,125.586258 270.963165,128.038010 273.864960,130.366364 
	C277.428101,133.225372 281.128754,135.914505 284.659973,138.811157 
	C286.320770,140.173492 288.297180,141.591919 289.125824,143.436325 
	C290.864655,147.306595 293.449036,149.271301 297.604645,150.162338 
	C299.930023,150.660965 302.191498,152.451767 303.994263,154.171417 
	C307.055664,157.091751 309.731781,160.416016 312.569855,163.570526 
	C313.072662,163.257309 313.575470,162.944092 314.078308,162.630890 
	C313.342377,165.969772 311.580505,169.541077 315.463531,171.960983 
	C320.236908,166.809250 325.928558,171.020950 331.013123,170.009567 
	C323.790680,173.089355 316.568237,176.169144 308.609070,179.175903 
	C307.262329,179.455521 306.652313,179.808167 306.042267,180.160797 
	C306.042267,180.160797 306.049591,180.070450 305.675232,180.052628 
	C302.577087,181.426270 299.853302,182.817719 297.129547,184.209167 
	C297.129547,184.209167 297.054810,184.132095 296.690796,184.089218 
	C293.813354,184.225479 290.714874,183.281357 290.175140,187.250198 
	C290.175140,187.250198 290.071960,187.194321 289.797913,187.148682 
	C289.038879,187.471497 288.553925,187.839935 288.069000,188.208374 
	C288.069000,188.208374 288.059387,188.105621 287.721619,188.074982 
	C285.938202,188.740097 284.492554,189.435837 283.046875,190.131592 
	C283.046875,190.131592 283.030212,190.046341 282.644226,190.035965 
	C278.558441,189.916458 274.914581,189.938095 272.763977,194.125214 
	C272.389709,194.580627 272.244659,194.898422 272.099609,195.216217 
	C272.099579,195.216217 272.075562,195.123154 271.764862,195.082764 
	C270.975464,195.017578 270.496765,194.992783 270.013702,194.578827 
	C273.610718,189.660507 267.300110,184.972687 270.295197,180.014618 
	C267.760101,180.628738 265.642609,181.558319 263.723022,182.795013 
	C260.197296,185.066422 256.312561,183.896484 255.424530,180.010056 
	C263.048920,180.810150 269.361542,174.168655 270.786774,169.935043 
	C272.800751,163.952469 270.519775,157.086761 265.519531,153.061081 
	C260.565247,149.072403 253.871384,149.095749 250.036621,153.115051 
	C250.036621,153.115051 250.027222,153.033249 249.685791,153.029343 
	C243.905731,154.920074 242.486633,157.396683 242.312637,165.297043 
	C242.312637,165.297043 242.230072,165.285568 241.956757,165.275635 
	C241.443832,165.547119 241.204208,165.828522 240.964584,166.109924 
	C240.964584,166.109924 240.764420,166.379166 240.483917,166.282425 
	C240.203430,166.185684 239.976349,165.957825 239.984802,165.564407 
	C240.049072,162.988663 239.640228,161.678726 236.843262,162.461151 
	C235.131912,162.939896 233.177460,162.549622 230.777527,162.549622 
	C232.948151,158.718842 234.779037,155.487625 236.864624,151.806900 
	C232.435593,152.312775 229.416412,152.657623 225.535324,153.100906 
	C226.695206,150.240021 227.350449,148.623871 228.254669,146.830505 
	C228.655457,146.076889 228.807251,145.500504 228.959045,144.924103 
	C228.959045,144.924103 228.988815,144.996490 229.319885,144.989532 
	C230.356491,144.519531 231.062042,144.056503 231.767593,143.593475 
	C231.767593,143.593460 231.841522,143.712387 232.045807,143.724152 
	C232.508057,143.496628 232.766022,143.257339 233.023987,143.018051 
	C233.023987,143.018051 233.239334,142.813309 233.759659,142.865341 
	C235.513351,142.253052 236.746719,141.588715 237.980072,140.924377 
	C237.980072,140.924377 237.984573,140.995010 238.266251,140.973419 
	C239.040649,140.633606 239.533371,140.315399 240.026093,139.997192 
	C240.026093,139.997192 240.209976,139.796921 240.642853,139.806213 
	C241.385040,139.567017 241.694336,139.318542 242.003632,139.070068 
	C242.003632,139.070068 242.245880,138.844315 242.767639,138.881653 
	C243.868973,138.589661 244.448563,138.260345 245.028137,137.931030 
	C245.028137,137.931030 245.198944,137.767044 245.696045,137.834259 
	C246.823929,137.537766 247.454727,137.174042 248.085510,136.810318 
	C248.085510,136.810318 248.251892,136.744293 248.637604,136.775360 
	C249.348267,136.534409 249.673233,136.262390 249.998199,135.990387 
	C249.998199,135.990387 249.999390,136.001221 250.289093,135.985641 
	C251.060349,135.678009 251.541916,135.385956 252.023468,135.093903 
	C252.023468,135.093903 252.085373,134.975845 252.292603,134.899658 
	C252.683548,134.664261 252.853088,134.491180 253.008453,134.304214 
z"/>
<path fill="#CC267D" opacity="1.000000" stroke="none" 
	d="
M331.328644,170.019424 
	C325.928558,171.020950 320.236908,166.809250 315.463531,171.960983 
	C311.580505,169.541077 313.342377,165.969772 314.078308,162.630890 
	C313.575470,162.944092 313.072662,163.257309 312.569855,163.570526 
	C309.731781,160.416016 307.055664,157.091751 303.994263,154.171417 
	C302.191498,152.451767 299.930023,150.660965 297.604645,150.162338 
	C293.449036,149.271301 290.864655,147.306595 289.125824,143.436325 
	C288.297180,141.591919 286.320770,140.173492 284.659973,138.811157 
	C281.128754,135.914505 277.428101,133.225372 273.864960,130.366364 
	C270.963165,128.038010 268.160370,125.586258 265.670990,122.009811 
	C269.169739,123.002480 272.668488,123.995148 276.388489,125.050591 
	C276.979858,122.413940 277.479736,120.185158 277.989777,117.562347 
	C287.493134,119.663918 297.058594,121.915718 306.465393,124.703003 
	C330.142395,131.718628 353.750397,138.967331 377.376587,146.153915 
	C379.110657,146.681381 380.768372,147.459930 383.484680,148.521622 
	C369.006042,154.493408 355.352142,160.125031 341.228058,165.664886 
	C340.528534,165.761932 340.299164,165.950760 340.069763,166.139557 
	C340.069763,166.139557 340.017029,166.051956 339.710114,166.043915 
	C338.613129,166.393433 337.823090,166.751007 337.033020,167.108582 
	C337.033020,167.108566 337.019104,167.025024 336.696228,167.027878 
	C335.601807,167.424194 334.830200,167.817657 334.058624,168.211121 
	C333.253815,168.817169 332.448975,169.423233 331.328644,170.019424 
z"/>
<path fill="#A32C84" opacity="1.000000" stroke="none" 
	d="
M196.247345,282.398315 
	C188.524628,280.893616 180.789047,279.451050 173.085327,277.854706 
	C169.848984,277.184052 168.807053,274.696381 168.342178,271.652557 
	C164.647217,247.459229 170.592438,226.365585 188.624420,209.298157 
	C188.506073,211.044235 188.298798,212.641983 187.525970,213.889359 
	C186.249176,215.950226 182.971313,218.567001 183.445526,219.559174 
	C184.582321,221.937531 187.410217,223.507599 190.240540,226.009308 
	C189.540573,223.000916 189.166916,221.394913 188.793243,219.788910 
	C189.445938,219.625488 190.098618,219.462051 190.751312,219.298630 
	C191.168030,220.957626 191.724976,222.595825 191.974762,224.279572 
	C192.681229,229.041840 197.648911,233.037277 202.195358,232.064713 
	C205.860336,231.280731 209.429611,230.049332 212.909546,229.324539 
	C208.832291,234.332108 204.561264,238.800079 201.017136,243.784882 
	C195.619186,251.377121 192.248352,259.879822 193.242203,269.400787 
	C193.700378,273.790039 195.212891,278.069214 196.247345,282.398315 
z"/>
<path fill="#AF2B81" opacity="1.000000" stroke="none" 
	d="
M213.041336,229.016418 
	C209.429611,230.049332 205.860336,231.280731 202.195358,232.064713 
	C197.648911,233.037277 192.681229,229.041840 191.974762,224.279572 
	C191.724976,222.595825 191.168030,220.957626 190.751312,219.298630 
	C190.098618,219.462051 189.445938,219.625488 188.793243,219.788910 
	C189.166916,221.394913 189.540573,223.000916 190.240540,226.009308 
	C187.410217,223.507599 184.582321,221.937531 183.445526,219.559174 
	C182.971313,218.567001 186.249176,215.950226 187.525970,213.889359 
	C188.298798,212.641983 188.506073,211.044235 188.945648,209.183456 
	C197.816010,199.112717 208.842072,192.353058 220.124268,186.007797 
	C225.901367,182.758713 232.015457,180.114487 237.870300,176.996140 
	C242.636765,174.457458 246.738480,172.673233 252.151413,176.690887 
	C256.643433,180.025009 261.624420,177.298523 265.581329,173.880478 
	C269.756470,170.273834 270.019867,165.538559 268.757202,160.676834 
	C267.555603,156.050232 262.930298,152.342560 258.184723,152.165955 
	C255.755081,152.075531 253.297821,152.727036 250.444824,153.079132 
	C253.871384,149.095749 260.565247,149.072403 265.519531,153.061081 
	C270.519775,157.086761 272.800751,163.952469 270.786774,169.935043 
	C269.361542,174.168655 263.048920,180.810150 255.094345,179.863770 
	C252.271439,178.723557 250.191223,177.737671 248.121353,176.730469 
	C244.655579,175.044052 240.750595,176.923172 240.295395,179.250320 
	C235.449951,181.057266 231.206329,182.369446 227.247345,184.273483 
	C225.985794,184.880188 225.531464,187.092377 224.609344,188.505722 
	C224.072891,189.327942 223.479080,190.252579 222.673859,190.735962 
	C218.721466,193.108582 219.904907,195.780762 222.080994,198.541763 
	C225.426025,202.785965 228.798813,207.008301 232.135590,211.209396 
	C236.155228,209.339249 239.174896,207.934326 242.194565,206.529404 
	C242.048767,206.185135 241.902969,205.840866 241.757172,205.496582 
	C243.876678,205.710022 245.996185,205.923462 248.115692,206.136902 
	C240.484314,210.438446 232.852921,214.739990 224.503952,219.073792 
	C223.298203,219.561768 222.810043,220.017471 222.321884,220.473175 
	C222.321884,220.473175 222.217529,220.402344 221.991272,220.360931 
	C221.535385,220.602844 221.305740,220.886169 221.076111,221.169495 
	C221.076111,221.169495 221.058533,221.066055 220.853912,221.156387 
	C220.447952,221.534912 220.246597,221.823120 220.045227,222.111328 
	C220.045227,222.111313 220.037872,222.027740 219.720139,222.056686 
	C217.948288,223.753677 216.494171,225.421722 214.926331,227.355072 
	C214.222183,228.085724 213.631760,228.551071 213.041336,229.016418 
z"/>
<path fill="#4665A5" opacity="1.000000" stroke="none" 
	d="
M237.965866,276.854675 
	C227.941208,278.530273 217.916534,280.205872 207.546692,281.476349 
	C209.195526,280.040039 211.183975,278.997864 213.184662,277.979706 
	C218.179825,275.437653 219.012878,270.592010 220.315872,265.810425 
	C221.048172,263.123077 221.987747,260.196655 225.903732,259.670197 
	C227.444550,259.463013 228.751465,257.190063 230.077011,255.775482 
	C232.826569,252.841248 235.458740,249.795349 238.251648,246.903992 
	C240.314438,244.768478 242.719910,242.944214 244.627274,240.689133 
	C245.294189,239.900604 244.929504,238.239594 245.035339,236.766724 
	C245.034760,236.556458 245.032166,236.135895 245.032166,236.135895 
	C250.832779,234.912964 256.633392,233.690048 262.866943,232.865967 
	C263.916931,233.037445 264.533997,232.810074 265.151093,232.582718 
	C266.883759,232.152115 268.616425,231.721497 270.767944,231.665131 
	C272.140076,231.758316 273.093292,231.477249 274.046539,231.196167 
	C274.528229,230.973434 275.009888,230.750702 275.747314,230.963394 
	C275.051361,233.259598 273.392609,235.079910 273.283356,236.988907 
	C272.981842,242.257919 269.127991,243.899231 265.532196,246.363785 
	C261.121185,249.387070 257.076477,253.020630 253.214218,256.743896 
	C250.262207,259.589691 248.425262,264.481293 245.051086,265.801300 
	C239.330719,268.039124 238.873489,272.273407 237.965866,276.854675 
z"/>
<path fill="#3B529C" opacity="1.000000" stroke="none" 
	d="
M266.008392,272.522980 
	C265.473755,272.624329 264.939117,272.725677 263.974213,272.642944 
	C263.404816,272.323059 263.238678,272.243500 263.061462,271.846375 
	C266.477966,267.183960 268.028290,262.078552 273.070587,258.291473 
	C281.799957,251.735214 288.817047,242.890732 296.480347,234.936676 
	C297.249176,234.138657 297.523010,232.863724 298.417877,230.991455 
	C292.591431,230.991455 287.793274,230.991455 283.002686,230.772400 
	C283.041962,230.262695 283.058197,229.971191 283.058899,229.678833 
	C289.207092,229.623428 295.355286,229.568039 301.975342,229.776031 
	C302.447235,230.039413 302.617126,230.088013 302.617126,230.088013 
	C303.875854,230.301102 305.134552,230.514191 306.760651,231.272034 
	C308.093994,231.855499 309.059967,231.894196 310.025940,231.932877 
	C310.575226,232.047180 311.124512,232.161499 311.969299,232.818771 
	C315.399445,236.284943 318.534058,239.208145 321.909882,242.356277 
	C315.193268,242.409698 310.287811,246.138428 307.604797,250.680573 
	C304.786194,255.452301 301.900879,260.059906 298.304138,264.207092 
	C296.915741,265.807922 295.044464,267.295959 293.090515,268.033936 
	C289.482574,269.396637 285.651245,270.167725 281.498352,271.173920 
	C279.417450,271.168854 277.751190,271.175201 275.861084,270.882202 
	C272.092041,269.564026 268.306702,267.353394 266.008392,272.522980 
z"/>
<path fill="#B8267F" opacity="1.000000" stroke="none" 
	d="
M248.088974,206.111877 
	C245.996185,205.923462 243.876678,205.710022 241.757172,205.496582 
	C241.902969,205.840866 242.048767,206.185135 242.194565,206.529404 
	C239.174896,207.934326 236.155228,209.339249 232.135590,211.209396 
	C228.798813,207.008301 225.426025,202.785965 222.080994,198.541763 
	C219.904907,195.780762 218.721466,193.108582 222.673859,190.735962 
	C223.479080,190.252579 224.072891,189.327942 224.609344,188.505722 
	C225.531464,187.092377 225.985794,184.880188 227.247345,184.273483 
	C231.206329,182.369446 235.449951,181.057266 240.295395,179.250320 
	C240.750595,176.923172 244.655579,175.044052 248.121353,176.730469 
	C250.191223,177.737671 252.271439,178.723557 254.677185,179.865295 
	C256.312561,183.896484 260.197296,185.066422 263.723022,182.795013 
	C265.642609,181.558319 267.760101,180.628738 270.295197,180.014618 
	C267.300110,184.972687 273.610718,189.660507 269.706573,194.720108 
	C267.605713,196.464752 265.807648,197.678955 264.009552,198.893158 
	C264.009552,198.893158 263.589203,199.032654 262.976257,199.029358 
	C258.940552,200.738846 255.517761,202.451630 252.094971,204.164429 
	C252.094971,204.164429 252.042862,204.071442 251.768799,204.076981 
	C251.015656,204.443573 250.536560,204.804626 250.057465,205.165680 
	C250.057480,205.165695 250.055756,205.077545 249.774261,205.079178 
	C249.014099,205.440353 248.535446,205.799911 248.056793,206.159454 
	C248.056793,206.159439 248.062256,206.086868 248.088974,206.111877 
z"/>
<path fill="#3A4B95" opacity="1.000000" stroke="none" 
	d="
M281.912964,271.185303 
	C285.651245,270.167725 289.482574,269.396637 293.090515,268.033936 
	C295.044464,267.295959 296.915741,265.807922 298.304138,264.207092 
	C301.900879,260.059906 304.786194,255.452301 307.604797,250.680573 
	C310.287811,246.138428 315.193268,242.409698 321.909882,242.356277 
	C318.534058,239.208145 315.399445,236.284943 312.172791,233.021027 
	C325.816162,237.754074 331.122620,250.767365 328.528870,264.608948 
	C326.287567,276.569702 320.556000,287.060547 312.816467,296.696136 
	C312.220490,295.986816 311.940674,295.277740 312.126038,294.724579 
	C317.591400,278.418457 300.270660,270.863068 287.588257,272.868713 
	C285.506622,272.841034 283.841766,272.810760 282.136780,272.514008 
	C282.035431,271.893463 281.974213,271.539368 281.912964,271.185303 
z"/>
<path fill="#3F5A9F" opacity="1.000000" stroke="none" 
	d="
M282.995117,230.991455 
	C287.793274,230.991455 292.591431,230.991455 298.417877,230.991455 
	C297.523010,232.863724 297.249176,234.138657 296.480347,234.936676 
	C288.817047,242.890732 281.799957,251.735214 273.070587,258.291473 
	C268.028290,262.078552 266.477966,267.183960 262.872437,271.908661 
	C262.273315,272.626434 261.879181,272.908081 261.485046,273.189758 
	C261.230743,273.395569 260.997375,273.745789 260.719116,273.786194 
	C253.412476,274.846008 246.101151,275.873718 238.378265,276.880798 
	C238.873489,272.273407 239.330719,268.039124 245.051086,265.801300 
	C248.425262,264.481293 250.262207,259.589691 253.214218,256.743896 
	C257.076477,253.020630 261.121185,249.387070 265.532196,246.363785 
	C269.127991,243.899231 272.981842,242.257919 273.283356,236.988907 
	C273.392609,235.079910 275.051361,233.259598 276.005432,231.062515 
	C277.408539,230.505203 278.809296,230.284180 280.806122,230.337463 
	C281.933167,230.738327 282.464142,230.864883 282.995117,230.991455 
z"/>
<path fill="#AF2B81" opacity="1.000000" stroke="none" 
	d="
M191.998123,194.859833 
	C191.249420,195.517487 190.500717,196.175156 189.206192,197.051270 
	C188.497223,197.603210 188.334061,197.936722 188.170898,198.270233 
	C188.170914,198.270233 188.223572,198.182571 187.933319,198.136703 
	C187.428299,198.060364 187.213516,198.029877 186.609833,197.999664 
	C183.243866,199.825989 180.132980,201.469727 177.327316,203.529251 
	C174.513977,205.594406 172.005127,208.074387 169.362808,210.372543 
	C168.711197,209.743073 168.059570,209.113617 167.407959,208.484161 
	C169.063751,206.355331 170.409866,203.851807 172.439026,202.174744 
	C176.817566,198.555984 177.017517,197.586807 172.353867,192.972824 
	C169.359467,198.035919 167.355270,205.276962 159.013428,200.648407 
	C158.994904,199.859558 158.982590,199.408752 158.970261,198.957947 
	C158.970261,198.957947 159.004364,198.993134 159.359894,198.988647 
	C165.766785,197.664658 165.450363,192.156860 167.014938,187.886261 
	C176.272186,179.588806 185.446060,171.195038 194.843765,163.059860 
	C197.272415,160.957489 200.403397,159.666428 203.610001,158.005219 
	C204.008255,158.007751 204.103790,158.111313 204.028214,158.453918 
	C200.383835,161.850998 196.815018,164.905457 192.423538,168.664017 
	C195.501709,168.497452 197.491028,168.389801 200.535599,168.225067 
	C192.829727,174.849777 192.829727,174.849777 198.411911,177.817993 
	C196.041489,182.767822 200.164108,182.907700 203.053040,184.140305 
	C203.193359,184.328125 203.279434,184.377319 203.365509,184.426514 
	C203.244247,184.283936 203.122971,184.141342 203.001801,183.601959 
	C203.119873,181.965759 203.237885,180.726349 203.237930,180.725739 
	C208.643616,179.348648 213.311295,178.159561 218.102631,177.118439 
	C218.226288,177.266403 218.480133,177.556763 218.480133,177.556763 
	C210.596420,182.676682 202.712708,187.796600 194.168488,192.998566 
	C193.004684,193.673691 192.501404,194.266754 191.998123,194.859833 
M177.703690,194.568573 
	C177.989410,194.295837 178.275131,194.023117 178.560867,193.750397 
	C178.447784,193.632156 178.242599,193.404877 178.234863,193.411407 
	C177.933502,193.665924 177.650146,193.941772 177.703690,194.568573 
z"/>
<path fill="#A62C81" opacity="1.000000" stroke="none" 
	d="
M159.019638,200.986450 
	C167.355270,205.276962 169.359467,198.035919 172.353867,192.972824 
	C177.017517,197.586807 176.817566,198.555984 172.439026,202.174744 
	C170.409866,203.851807 169.063751,206.355331 167.407959,208.484161 
	C168.059570,209.113617 168.711197,209.743073 169.362808,210.372543 
	C172.005127,208.074387 174.513977,205.594406 177.327316,203.529251 
	C180.132980,201.469727 183.243866,199.825989 186.650528,198.313248 
	C187.129501,198.831467 187.178879,199.036407 187.228256,199.241364 
	C187.228256,199.241364 187.147034,199.167343 186.912735,199.236511 
	C186.485168,199.638474 186.291901,199.971268 186.098633,200.304047 
	C186.065048,200.615906 185.910172,200.846222 185.061676,201.039597 
	C182.420792,203.482681 180.352264,205.881165 178.283737,208.279648 
	C178.283737,208.279648 178.135773,208.220795 177.928192,208.263855 
	C177.561142,208.636795 177.401672,208.966660 177.242203,209.296524 
	C177.242203,209.296524 177.164764,209.169876 176.942307,209.244888 
	C176.563583,209.653641 176.407318,209.987381 176.251053,210.321121 
	C176.251053,210.321121 176.216858,210.182846 175.923737,210.250061 
	C175.159592,211.294052 174.688538,212.270859 174.217499,213.247650 
	C174.217499,213.247650 174.129532,213.157166 173.883209,213.264145 
	C173.466751,213.766235 173.296600,214.161331 173.126450,214.556442 
	C173.126450,214.556442 173.149155,214.849869 172.696472,214.982788 
	C171.901901,215.828293 171.559998,216.540909 171.218094,217.253510 
	C171.218094,217.253510 171.141617,217.138046 170.874649,217.258301 
	C170.115448,218.453796 169.623230,219.529007 169.131012,220.604233 
	C169.131012,220.604233 169.170624,220.864380 168.707489,220.995682 
	C167.887085,222.147705 167.529800,223.168427 167.172516,224.189148 
	C167.172531,224.189148 167.133545,224.092606 166.833405,224.202164 
	C159.823547,235.250793 158.285080,247.463257 157.740875,261.496094 
	C156.050797,258.640625 154.814621,257.013611 154.062744,255.187210 
	C152.412582,251.178711 151.007553,247.069290 149.502426,243.001083 
	C149.385147,242.547073 149.267853,242.093079 149.440704,240.963837 
	C149.577942,235.881134 149.425049,231.473694 149.272156,227.066238 
	C149.234360,226.599472 149.196579,226.132690 149.610687,225.220367 
	C151.088440,220.199310 152.114304,215.623840 153.140167,211.048355 
	C153.222656,210.547928 153.305130,210.047516 153.927063,209.162170 
	C155.984222,206.180328 157.501923,203.583389 159.019638,200.986450 
z"/>
<path fill="#E84F2F" opacity="1.000000" stroke="none" 
	d="
M242.997314,335.971710 
	C247.644272,331.095306 252.578110,326.455536 256.853210,321.272430 
	C260.716339,316.588745 263.859558,311.311310 267.880096,306.300110 
	C270.246490,308.629944 271.948669,311.046631 273.883606,313.259857 
	C276.905060,316.715912 280.084167,320.034119 283.147522,323.683899 
	C282.771820,324.822083 282.445129,325.687103 282.118439,326.552124 
	C281.961853,326.699585 281.805237,326.847076 281.061829,327.088867 
	C280.015930,327.702118 279.556854,328.221100 279.097778,328.740112 
	C262.471222,340.221680 245.257187,350.684113 226.439178,358.571136 
	C227.735504,357.159576 229.266220,355.931152 230.975174,355.047485 
	C236.680878,352.097290 242.491287,349.347351 248.160782,346.331238 
	C249.288681,345.731171 250.585754,344.368958 250.727173,343.225006 
	C251.001480,341.005920 245.530701,336.200806 242.997314,335.971710 
z"/>
<path fill="#486CA9" opacity="1.000000" stroke="none" 
	d="
M245.035919,236.977005 
	C244.929504,238.239594 245.294189,239.900604 244.627274,240.689133 
	C242.719910,242.944214 240.314438,244.768478 238.251648,246.903992 
	C235.458740,249.795349 232.826569,252.841248 230.077011,255.775482 
	C228.751465,257.190063 227.444550,259.463013 225.903732,259.670197 
	C221.987747,260.196655 221.048172,263.123077 220.315872,265.810425 
	C219.012878,270.592010 218.179825,275.437653 213.184662,277.979706 
	C211.183975,278.997864 209.195526,280.040039 207.105759,281.424591 
	C204.590775,281.995667 202.171509,282.213409 199.339020,281.931366 
	C198.619446,279.287292 198.313080,277.142975 198.353348,274.942749 
	C201.595123,270.330597 204.225204,265.574341 207.466782,261.279572 
	C210.208130,257.647522 213.536758,254.424210 216.833252,251.257080 
	C219.321518,248.866440 222.514343,247.152008 224.761795,244.583740 
	C227.070511,241.945465 226.008209,239.804611 222.488419,238.924026 
	C221.922943,238.782562 221.621597,237.585266 221.198151,236.876053 
	C228.533142,236.662048 235.868149,236.448044 243.750519,236.440491 
	C244.509125,236.834732 244.755127,236.944748 245.035919,236.977005 
z"/>
<path fill="#E93D2D" opacity="1.000000" stroke="none" 
	d="
M242.992554,335.982239 
	C245.530701,336.200806 251.001480,341.005920 250.727173,343.225006 
	C250.585754,344.368958 249.288681,345.731171 248.160782,346.331238 
	C242.491287,349.347351 236.680878,352.097290 230.975174,355.047485 
	C229.266220,355.931152 227.735504,357.159576 226.071075,358.570068 
	C226.019012,358.910126 225.704926,359.157990 225.124329,359.134827 
	C222.050385,360.418945 219.557037,361.726196 217.063690,363.033447 
	C217.063690,363.033447 217.032776,363.050781 216.633423,363.036987 
	C212.488922,364.729553 208.743744,366.435944 204.998581,368.142303 
	C197.532394,371.025146 190.066208,373.907990 182.600021,376.790833 
	C182.272766,376.145386 181.945511,375.499908 181.618271,374.854462 
	C202.354843,363.592072 223.017502,352.217010 241.797607,336.946747 
	C242.571243,336.531708 242.770447,336.266571 242.969635,336.001465 
	C242.969650,336.001465 242.987762,335.992798 242.992554,335.982239 
z"/>
<path fill="#ED672C" opacity="1.000000" stroke="none" 
	d="
M283.196472,323.410736 
	C280.084167,320.034119 276.905060,316.715912 273.883606,313.259857 
	C271.948669,311.046631 270.246490,308.629944 268.151428,306.106079 
	C269.013824,301.589417 270.164703,297.271118 271.640076,292.438538 
	C272.261292,291.572815 272.558044,291.221405 272.906433,291.291199 
	C273.776917,293.463959 274.382385,296.586395 275.447968,296.752258 
	C284.794586,298.206909 287.249908,307.569427 293.720520,312.220184 
	C294.229126,312.585724 293.908356,314.105133 293.748199,315.322998 
	C290.081085,318.175385 286.638763,320.793060 283.196472,323.410736 
z"/>
<path fill="#4D73AE" opacity="1.000000" stroke="none" 
	d="
M220.986359,236.652603 
	C221.621597,237.585266 221.922943,238.782562 222.488419,238.924026 
	C226.008209,239.804611 227.070511,241.945465 224.761795,244.583740 
	C222.514343,247.152008 219.321518,248.866440 216.833252,251.257080 
	C213.536758,254.424210 210.208130,257.647522 207.466782,261.279572 
	C204.225204,265.574341 201.595123,270.330597 198.350281,274.481689 
	C197.080002,257.997894 204.324066,246.095123 217.151947,237.196533 
	C217.882217,236.953827 218.443466,236.476318 219.004700,235.998810 
	C219.594666,236.142258 220.184631,236.285706 220.986359,236.652603 
z"/>
<path fill="#3F5A9F" opacity="1.000000" stroke="none" 
	d="
M216.982941,236.961731 
	C204.324066,246.095123 197.080002,257.997894 198.003662,274.537598 
	C198.313080,277.142975 198.619446,279.287292 198.953522,281.767700 
	C198.295319,282.275909 197.609406,282.447998 196.585419,282.509216 
	C195.212891,278.069214 193.700378,273.790039 193.242203,269.400787 
	C192.248352,259.879822 195.619186,251.377121 201.017136,243.784882 
	C204.561264,238.800079 208.832291,234.332108 212.909546,229.324524 
	C213.631760,228.551071 214.222183,228.085724 215.249146,227.385742 
	C215.900589,227.177109 216.115494,227.203094 216.330399,227.229065 
	C216.229950,228.578751 216.129486,229.928436 215.995361,231.812866 
	C215.986862,232.522247 216.054779,232.678299 216.165451,232.815750 
	C216.428955,233.189468 216.692444,233.563202 217.008209,234.658066 
	C217.034622,235.906723 217.008774,236.434219 216.982941,236.961731 
z"/>
<path fill="#E84F2F" opacity="1.000000" stroke="none" 
	d="
M282.176941,272.780487 
	C283.841766,272.810760 285.506622,272.841034 287.836121,273.167023 
	C293.993622,275.125458 299.645416,276.397583 304.938721,278.550873 
	C311.406128,281.181732 313.123688,288.515778 309.096802,293.800415 
	C308.938568,289.230103 309.505615,284.781891 305.227264,282.222260 
	C298.719208,278.328613 291.673065,276.353180 283.549561,277.026733 
	C279.322540,277.023834 275.557831,277.035583 271.631226,277.092529 
	C271.469360,277.137726 271.178314,277.305908 271.178314,277.305908 
	C270.982819,276.915741 270.787292,276.525604 270.751404,275.492310 
	C271.272675,274.211182 271.634369,273.573151 272.379761,272.913147 
	C273.787445,272.856232 274.811401,272.821320 276.278412,272.902863 
	C278.539978,272.939728 280.358459,272.860107 282.176941,272.780487 
z"/>
<path fill="#945660" opacity="1.000000" stroke="none" 
	d="
M309.143463,294.259491 
	C313.123688,288.515778 311.406128,281.181732 304.938721,278.550873 
	C299.645416,276.397583 293.993622,275.125458 288.252930,273.164368 
	C300.270660,270.863068 317.591400,278.418457 312.126038,294.724579 
	C311.940674,295.277740 312.220490,295.986816 312.544067,296.919617 
	C309.138184,301.480255 305.471710,305.744507 301.400513,310.005524 
	C300.995850,310.002258 300.854858,309.882965 300.890839,309.529144 
	C302.383148,306.494598 303.839447,303.813843 305.475647,301.036865 
	C305.889771,300.772247 306.035034,300.546539 306.313812,300.109924 
	C306.712067,299.649231 306.887848,299.342133 307.032166,299.020325 
	C307.000732,299.005615 307.039398,299.063263 307.271423,298.964996 
	C307.656616,298.577667 307.809845,298.288635 308.006775,297.666931 
	C308.414825,296.309357 308.779144,295.284424 309.143463,294.259491 
z"/>
<path fill="#A32C84" opacity="1.000000" stroke="none" 
	d="
M149.506439,243.384094 
	C151.007553,247.069290 152.412582,251.178711 154.062744,255.187210 
	C154.814621,257.013611 156.050797,258.640625 157.740875,261.496094 
	C158.285080,247.463257 159.823547,235.250793 166.885132,224.207916 
	C160.698822,238.082520 158.644684,252.769058 160.976028,269.469208 
	C153.508743,261.369049 151.039383,252.777054 149.506439,243.384094 
z"/>
<path fill="#B8267F" opacity="1.000000" stroke="none" 
	d="
M263.208923,111.594391 
	C258.869141,111.102730 254.250046,110.329430 248.644150,109.390930 
	C249.966324,114.774422 251.279999,119.794632 252.408112,124.856194 
	C252.967484,127.365944 253.185638,129.951752 253.276764,132.756287 
	C250.767334,124.477737 248.539322,115.946037 246.041794,106.382294 
	C252.354050,108.225182 257.641815,109.768967 263.208923,111.594391 
z"/>
<path fill="#AF2B81" opacity="1.000000" stroke="none" 
	d="
M228.587372,144.940643 
	C228.807251,145.500504 228.655457,146.076889 227.893524,146.864548 
	C222.660645,149.493561 218.088150,152.014893 213.397018,154.291779 
	C210.389755,155.751373 207.207565,156.850571 204.103790,158.111313 
	C204.103790,158.111313 204.008255,158.007751 203.960724,157.955750 
	C212.014023,153.588226 220.114853,149.272705 228.587372,144.940643 
z"/>
<path fill="#945660" opacity="1.000000" stroke="none" 
	d="
M283.147522,323.683899 
	C286.638763,320.793060 290.081085,318.175385 294.059509,315.190796 
	C296.046906,313.862244 297.498199,312.900574 298.994995,311.988403 
	C299.040466,312.037903 299.136536,312.131927 299.136536,312.131927 
	C293.667297,316.917297 288.198059,321.702698 282.423645,326.520111 
	C282.445129,325.687103 282.771820,324.822083 283.147522,323.683899 
z"/>
<path fill="#A62C81" opacity="1.000000" stroke="none" 
	d="
M166.705887,188.034760 
	C165.450363,192.156860 165.766785,197.664658 159.338287,198.978455 
	C161.439697,195.376251 163.918274,191.779755 166.705887,188.034760 
z"/>
<path fill="#AF2B81" opacity="1.000000" stroke="none" 
	d="
M242.644363,165.188889 
	C242.486633,157.396683 243.905731,154.920074 249.722992,153.046982 
	C247.726456,157.072601 245.351273,161.076675 242.644363,165.188889 
z"/>
<path fill="#3A4B95" opacity="1.000000" stroke="none" 
	d="
M275.835327,272.786377 
	C274.811401,272.821320 273.787445,272.856232 272.211243,272.689209 
	C270.824188,272.584412 269.989441,272.681549 269.154663,272.778687 
	C268.361847,272.759247 267.569031,272.739807 266.392303,272.621643 
	C268.306702,267.353394 272.092041,269.564026 275.829895,271.149933 
	C275.960144,272.073456 275.897736,272.429901 275.835327,272.786377 
z"/>
<path fill="#945660" opacity="1.000000" stroke="none" 
	d="
M271.190643,277.740234 
	C271.178314,277.305908 271.469360,277.137726 271.636841,277.526581 
	C272.154480,282.233612 272.504639,286.551819 272.854797,290.869995 
	C272.558044,291.221405 272.261292,291.572815 271.915100,292.061462 
	C271.644745,287.523956 271.423859,282.849274 271.190643,277.740234 
z"/>
<path fill="#A32C84" opacity="1.000000" stroke="none" 
	d="
M152.928970,211.343231 
	C152.114304,215.623840 151.088440,220.199310 149.723907,224.885712 
	C150.496078,220.543793 151.606934,216.090958 152.928970,211.343231 
z"/>
<path fill="#B8267F" opacity="1.000000" stroke="none" 
	d="
M272.993164,193.987595 
	C274.914581,189.938095 278.558441,189.916458 282.684113,190.053131 
	C280.371918,191.419632 277.633789,192.758621 274.234619,194.057648 
	C273.380127,194.007675 273.186646,193.997635 272.993164,193.987595 
z"/>
<path fill="#AF2B81" opacity="1.000000" stroke="none" 
	d="
M252.382172,204.158142 
	C255.517761,202.451630 258.940552,200.738846 262.755005,199.038818 
	C259.654236,200.751678 256.161804,202.451767 252.382172,204.158142 
z"/>
<path fill="#A32C84" opacity="1.000000" stroke="none" 
	d="
M178.580017,208.141724 
	C180.352264,205.881165 182.420792,203.482681 184.850464,201.081055 
	C183.099854,203.386551 180.988083,205.695190 178.580017,208.141724 
z"/>
<path fill="#A32C84" opacity="1.000000" stroke="none" 
	d="
M159.013428,200.648407 
	C157.501923,203.583389 155.984222,206.180328 154.197556,208.889221 
	C155.419876,205.774200 156.911179,202.547241 158.686371,199.139099 
	C158.982590,199.408752 158.994904,199.859558 159.013428,200.648407 
z"/>
<path fill="#E84F2F" opacity="1.000000" stroke="none" 
	d="
M205.328674,368.139862 
	C208.743744,366.435944 212.488922,364.729553 216.616302,363.041595 
	C213.218613,364.752472 209.438705,366.444946 205.328674,368.139862 
z"/>
<path fill="#AF2B81" opacity="1.000000" stroke="none" 
	d="
M240.317047,166.299515 
	C237.269455,167.995590 234.108231,169.577820 230.517578,171.124878 
	C230.088150,171.089691 229.951828,170.930893 230.129456,170.638290 
	C233.530182,168.883057 236.753265,167.420441 239.976349,165.957825 
	C239.976349,165.957825 240.203430,166.185684 240.317047,166.299515 
z"/>
<path fill="#B8267F" opacity="1.000000" stroke="none" 
	d="
M297.498291,184.189789 
	C299.853302,182.817719 302.577087,181.426270 305.717316,180.069458 
	C303.378204,181.459534 300.622620,182.814957 297.498291,184.189789 
z"/>
<path fill="#AF2B81" opacity="1.000000" stroke="none" 
	d="
M264.372864,198.907547 
	C265.807648,197.678955 267.605713,196.464752 269.710938,195.109253 
	C270.496765,194.992783 270.975464,195.017578 271.811890,195.092743 
	C269.691772,196.402710 267.213959,197.662323 264.372864,198.907547 
z"/>
<path fill="#A32C84" opacity="1.000000" stroke="none" 
	d="
M149.171799,227.516312 
	C149.425049,231.473694 149.577942,235.881134 149.488647,240.610352 
	C149.188095,236.610214 149.129776,232.288300 149.171799,227.516312 
z"/>
<path fill="#A32C84" opacity="1.000000" stroke="none" 
	d="
M216.578232,227.021088 
	C216.115494,227.203094 215.900589,227.177109 215.362869,227.120438 
	C216.494171,225.421722 217.948288,223.753677 219.756638,222.077362 
	C219.015930,223.650436 217.920990,225.231781 216.578232,227.021088 
z"/>
<path fill="#E84F2F" opacity="1.000000" stroke="none" 
	d="
M217.424774,363.020020 
	C219.557037,361.726196 222.050385,360.418945 224.924286,359.134033 
	C222.798523,360.439789 220.292206,361.723175 217.424774,363.020020 
z"/>
<path fill="#B8267F" opacity="1.000000" stroke="none" 
	d="
M290.535461,187.226044 
	C290.714874,183.281357 293.813354,184.225479 296.744476,184.090363 
	C295.073364,185.156876 292.984589,186.179382 290.535461,187.226044 
z"/>
<path fill="#B8267F" opacity="1.000000" stroke="none" 
	d="
M275.749176,115.658310 
	C273.971680,115.540222 272.060730,115.095718 270.104675,114.267639 
	C271.911621,114.366669 273.763672,114.849281 275.749176,115.658310 
z"/>
<path fill="#AF2B81" opacity="1.000000" stroke="none" 
	d="
M230.158112,171.167511 
	C228.413864,172.174866 226.599670,173.104385 224.399002,174.021530 
	C224.012527,174.009155 223.941925,173.913971 224.124069,173.622620 
	C226.188080,172.531143 228.069962,171.731018 229.951828,170.930893 
	C229.951828,170.930893 230.088150,171.089691 230.158112,171.167511 
z"/>
<path fill="#B8267F" opacity="1.000000" stroke="none" 
	d="
M269.856781,113.667450 
	C268.184357,113.506516 266.266663,113.083122 264.169464,112.330597 
	C265.863800,112.469307 267.737671,112.937149 269.856781,113.667450 
z"/>
<path fill="#945660" opacity="1.000000" stroke="none" 
	d="
M269.259460,273.070679 
	C269.989441,272.681549 270.824188,272.584412 271.827515,272.711182 
	C271.634369,273.573151 271.272675,274.211182 270.716492,275.163940 
	C270.136078,274.773346 269.750183,274.068024 269.259460,273.070679 
z"/>
<path fill="#B8267F" opacity="1.000000" stroke="none" 
	d="
M283.407684,190.126678 
	C284.492554,189.435837 285.938202,188.740097 287.771362,188.088776 
	C286.695404,188.796066 285.231934,189.458923 283.407684,190.126678 
z"/>
<path fill="#3F5A9F" opacity="1.000000" stroke="none" 
	d="
M273.666565,231.122681 
	C273.093292,231.477249 272.140076,231.758316 271.106476,231.749207 
	C271.779602,231.322418 272.533112,231.185806 273.666565,231.122681 
z"/>
<path fill="#486CA9" opacity="1.000000" stroke="none" 
	d="
M217.151947,237.196533 
	C217.008774,236.434219 217.034622,235.906723 217.115906,234.985443 
	C217.687988,234.883591 218.204636,235.175522 218.862991,235.733124 
	C218.443466,236.476318 217.882217,236.953827 217.151947,237.196533 
z"/>
<path fill="#AF2B81" opacity="1.000000" stroke="none" 
	d="
M224.049179,174.055695 
	C222.981064,174.754868 221.876297,175.407501 220.386124,176.031189 
	C220.000702,176.002228 219.910858,175.905914 220.007202,175.562317 
	C221.382996,174.783813 222.662460,174.348892 223.941925,173.913971 
	C223.941925,173.913971 224.012527,174.009155 224.049179,174.055695 
z"/>
<path fill="#A32C84" opacity="1.000000" stroke="none" 
	d="
M167.432327,224.014404 
	C167.529800,223.168427 167.887085,222.147705 168.595276,221.064362 
	C168.528168,221.947723 168.110153,222.893707 167.432327,224.014404 
z"/>
<path fill="#A32C84" opacity="1.000000" stroke="none" 
	d="
M174.504791,213.111115 
	C174.688538,212.270859 175.159592,211.294052 175.989746,210.276825 
	C175.829941,211.149124 175.311020,212.061859 174.504791,213.111115 
z"/>
<path fill="#3A4B95" opacity="1.000000" stroke="none" 
	d="
M309.779999,231.722549 
	C309.059967,231.894196 308.093994,231.855499 307.069122,231.504944 
	C307.851501,231.299454 308.692780,231.405838 309.779999,231.722549 
z"/>
<path fill="#945660" opacity="1.000000" stroke="none" 
	d="
M261.699829,273.292053 
	C261.879181,272.908081 262.273315,272.626434 262.856506,272.282471 
	C263.238678,272.243500 263.404816,272.323059 263.565613,272.596680 
	C263.029694,272.954468 262.472168,273.174438 261.699829,273.292053 
z"/>
<path fill="#AF2B81" opacity="1.000000" stroke="none" 
	d="
M237.625763,140.941605 
	C236.746719,141.588715 235.513351,142.253052 233.904510,142.898438 
	C234.776505,142.239288 236.023972,141.599060 237.625763,140.941605 
z"/>
<path fill="#A32C84" opacity="1.000000" stroke="none" 
	d="
M169.434937,220.419617 
	C169.623230,219.529007 170.115448,218.453796 170.942993,217.247116 
	C170.765152,218.155457 170.252014,219.195236 169.434937,220.419617 
z"/>
<path fill="#A32C84" opacity="1.000000" stroke="none" 
	d="
M171.483536,217.126129 
	C171.559998,216.540909 171.901901,215.828293 172.571182,215.059937 
	C172.515366,215.669022 172.132172,216.333893 171.483536,217.126129 
z"/>
<path fill="#A62C81" opacity="1.000000" stroke="none" 
	d="
M192.309814,194.872375 
	C192.501404,194.266754 193.004684,193.673691 193.832672,193.067871 
	C193.645416,193.665054 193.133453,194.274994 192.309814,194.872375 
z"/>
<path fill="#945660" opacity="1.000000" stroke="none" 
	d="
M279.367157,328.736023 
	C279.556854,328.221100 280.015930,327.702118 280.760376,327.203979 
	C280.575989,327.727173 280.106262,328.229523 279.367157,328.736023 
z"/>
<path fill="#4665A5" opacity="1.000000" stroke="none" 
	d="
M283.002686,230.772400 
	C282.464142,230.864883 281.933167,230.738327 281.233215,230.391815 
	C281.551483,229.940430 282.038666,229.708969 282.792389,229.578171 
	C283.058197,229.971191 283.041962,230.262695 283.002686,230.772400 
z"/>
<path fill="#C4267F" opacity="1.000000" stroke="none" 
	d="
M337.378448,167.104431 
	C337.823090,166.751007 338.613129,166.393433 339.757385,166.063446 
	C339.315643,166.427444 338.519775,166.763855 337.378448,167.104431 
z"/>
<path fill="#C4267F" opacity="1.000000" stroke="none" 
	d="
M334.409668,168.184479 
	C334.830200,167.817657 335.601807,167.424194 336.731384,167.051529 
	C336.313141,167.434174 335.536896,167.796005 334.409668,168.184479 
z"/>
<path fill="#AF2B81" opacity="1.000000" stroke="none" 
	d="
M231.442841,143.619843 
	C231.062042,144.056503 230.356491,144.519531 229.287750,144.967178 
	C229.655731,144.516586 230.386917,144.081390 231.442841,143.619843 
z"/>
<path fill="#AF2B81" opacity="1.000000" stroke="none" 
	d="
M220.045425,176.050552 
	C219.734360,176.525269 219.378555,176.951660 218.751434,177.467407 
	C218.480133,177.556763 218.226288,177.266403 218.269348,176.882690 
	C218.845230,176.301300 219.378036,176.103607 219.910858,175.905914 
	C219.910858,175.905914 220.000702,176.002228 220.045425,176.050552 
z"/>
<path fill="#AF2B81" opacity="1.000000" stroke="none" 
	d="
M272.763977,194.125214 
	C273.186646,193.997635 273.380127,194.007675 273.863525,194.038315 
	C273.683472,194.446976 273.213470,194.835022 272.421539,195.219635 
	C272.244659,194.898422 272.389709,194.580627 272.763977,194.125214 
z"/>
<path fill="#AF2B81" opacity="1.000000" stroke="none" 
	d="
M251.727753,135.081238 
	C251.541916,135.385956 251.060349,135.678009 250.283813,135.982330 
	C250.469894,135.685944 250.950974,135.377258 251.727753,135.081238 
z"/>
<path fill="#AF2B81" opacity="1.000000" stroke="none" 
	d="
M247.711029,136.824219 
	C247.454727,137.174042 246.823929,137.537766 245.803513,137.883926 
	C246.054764,137.523621 246.695648,137.180878 247.711029,136.824219 
z"/>
<path fill="#AF2B81" opacity="1.000000" stroke="none" 
	d="
M244.684708,137.937622 
	C244.448563,138.260345 243.868973,138.589661 242.932281,138.899170 
	C243.163879,138.567657 243.752579,138.255936 244.684708,137.937622 
z"/>
<path fill="#AF2B81" opacity="1.000000" stroke="none" 
	d="
M239.719360,139.994324 
	C239.533371,140.315399 239.040649,140.633606 238.237549,140.952713 
	C238.422333,140.632904 238.917496,140.312180 239.719360,139.994324 
z"/>
<path fill="#B8267F" opacity="1.000000" stroke="none" 
	d="
M288.385925,188.200470 
	C288.553925,187.839935 289.038879,187.471497 289.855743,187.138901 
	C289.692719,187.514023 289.197784,187.853302 288.385925,188.200470 
z"/>
<path fill="#AF2B81" opacity="1.000000" stroke="none" 
	d="
M250.381866,205.146851 
	C250.536560,204.804626 251.015656,204.443573 251.819016,204.094818 
	C251.664276,204.447433 251.185272,204.787735 250.381866,205.146851 
z"/>
<path fill="#AF2B81" opacity="1.000000" stroke="none" 
	d="
M248.379074,206.141266 
	C248.535446,205.799911 249.014099,205.440353 249.816071,205.093124 
	C249.660034,205.444656 249.180695,205.783859 248.379074,206.141266 
z"/>
<path fill="#3F5A9F" opacity="1.000000" stroke="none" 
	d="
M264.802979,232.507660 
	C264.533997,232.810074 263.916931,233.037445 263.186401,232.972870 
	C263.533600,232.598129 263.994232,232.515366 264.802979,232.507660 
z"/>
<path fill="#A32C84" opacity="1.000000" stroke="none" 
	d="
M222.656357,220.431549 
	C222.810043,220.017471 223.298203,219.561768 224.172958,219.115784 
	C224.036652,219.546982 223.513748,219.968445 222.656357,220.431549 
z"/>
<path fill="#B8267F" opacity="1.000000" stroke="none" 
	d="
M306.412933,180.144836 
	C306.652313,179.808167 307.262329,179.455521 308.254761,179.130127 
	C308.019348,179.481186 307.401459,179.805008 306.412933,180.144836 
z"/>
<path fill="#A32C84" opacity="1.000000" stroke="none" 
	d="
M220.307785,222.035034 
	C220.246597,221.823120 220.447952,221.534912 220.906158,221.161407 
	C220.965439,221.370316 220.767883,221.664536 220.307785,222.035034 
z"/>
<path fill="#4665A5" opacity="1.000000" stroke="none" 
	d="
M302.615143,229.966858 
	C302.617126,230.088013 302.447235,230.039413 302.406860,230.026535 
	C302.366455,230.013657 302.613159,229.845703 302.615143,229.966858 
z"/>
<path fill="#A32C84" opacity="1.000000" stroke="none" 
	d="
M188.433914,198.166245 
	C188.334061,197.936722 188.497223,197.603210 188.926727,197.162292 
	C189.027710,197.390656 188.862320,197.726456 188.433914,198.166245 
z"/>
<path fill="#A32C84" opacity="1.000000" stroke="none" 
	d="
M187.471863,199.166443 
	C187.178879,199.036407 187.129501,198.831467 187.039429,198.312958 
	C187.213516,198.029877 187.428299,198.060364 187.956894,198.182068 
	C188.085632,198.546036 187.900558,198.818787 187.471863,199.166443 
z"/>
<path fill="#E84F2F" opacity="1.000000" stroke="none" 
	d="
M242.719666,336.060028 
	C242.770447,336.266571 242.571243,336.531708 242.126465,336.863525 
	C242.077164,336.659698 242.273438,336.389130 242.719666,336.060028 
z"/>
<path fill="#A32C84" opacity="1.000000" stroke="none" 
	d="
M186.376434,200.207047 
	C186.291901,199.971268 186.485168,199.638474 186.964966,199.219513 
	C187.052414,199.458893 186.853317,199.784470 186.376434,200.207047 
z"/>
<path fill="#B8267F" opacity="1.000000" stroke="none" 
	d="
M252.833862,134.373138 
	C252.853088,134.491180 252.683548,134.664261 252.351471,134.930908 
	C252.305878,134.801834 252.457932,134.603058 252.833862,134.373138 
z"/>
<path fill="#945660" opacity="1.000000" stroke="none" 
	d="
M300.124146,311.117798 
	C299.951996,311.397614 299.779846,311.677429 299.372131,312.044617 
	C299.136536,312.131927 299.040466,312.037903 299.080536,311.756226 
	C299.309662,311.181152 299.574127,310.994812 299.966370,310.966309 
	C300.018646,311.017120 300.124146,311.117798 300.124146,311.117798 
z"/>
<path fill="#945660" opacity="1.000000" stroke="none" 
	d="
M301.063599,310.065002 
	C300.954926,310.404724 300.778473,310.681732 300.363098,311.038269 
	C300.124146,311.117798 300.018646,311.017120 300.052429,310.738037 
	C300.273926,310.175598 300.530151,309.983612 300.854858,309.882965 
	C300.854858,309.882965 300.995850,310.002258 301.063599,310.065002 
z"/>
<path fill="#AF2B81" opacity="1.000000" stroke="none" 
	d="
M249.666824,136.017395 
	C249.673233,136.262390 249.348267,136.534409 248.696014,136.843185 
	C248.690964,136.601425 249.013214,136.322906 249.666824,136.017395 
z"/>
<path fill="#A32C84" opacity="1.000000" stroke="none" 
	d="
M176.515381,210.241852 
	C176.407318,209.987381 176.563583,209.653641 177.009766,209.275848 
	C177.126358,209.542053 176.953033,209.852325 176.515381,210.241852 
z"/>
<path fill="#A32C84" opacity="1.000000" stroke="none" 
	d="
M221.342468,221.112976 
	C221.305740,220.886169 221.535385,220.602844 222.052307,220.345032 
	C222.095993,220.599167 221.852417,220.827805 221.342468,221.112976 
z"/>
<path fill="#AF2B81" opacity="1.000000" stroke="none" 
	d="
M241.693970,139.087448 
	C241.694336,139.318542 241.385040,139.567017 240.770447,139.853134 
	C240.771530,139.628784 241.077927,139.366806 241.693970,139.087448 
z"/>
<path fill="#4D73AE" opacity="1.000000" stroke="none" 
	d="
M216.260056,232.684998 
	C216.054779,232.678299 215.986862,232.522247 215.966705,232.218506 
	C216.222260,232.143356 216.349915,232.298309 216.260056,232.684998 
z"/>
<path fill="#AF2B81" opacity="1.000000" stroke="none" 
	d="
M232.747391,143.010559 
	C232.766022,143.257339 232.508057,143.496628 231.976135,143.717300 
	C231.958374,143.466797 232.214584,143.234924 232.747391,143.010559 
z"/>
<path fill="#A32C84" opacity="1.000000" stroke="none" 
	d="
M173.401138,214.391129 
	C173.296600,214.161331 173.466751,213.766235 173.942017,213.241287 
	C174.056717,213.482910 173.866272,213.854355 173.401138,214.391129 
z"/>
<path fill="#A32C84" opacity="1.000000" stroke="none" 
	d="
M177.508713,209.221069 
	C177.401672,208.966660 177.561142,208.636795 178.007446,208.256226 
	C178.121262,208.518875 177.948242,208.832245 177.508713,209.221069 
z"/>
<path fill="#4D73AE" opacity="1.000000" stroke="none" 
	d="
M245.035339,236.766724 
	C244.755127,236.944748 244.509125,236.834732 244.176102,236.483261 
	C244.206589,236.231827 244.358871,236.144058 244.771667,236.096100 
	C245.032166,236.135895 245.034760,236.556458 245.035339,236.766724 
z"/>
<path fill="#AF2B81" opacity="1.000000" stroke="none" 
	d="
M241.258911,166.084351 
	C241.204208,165.828522 241.443832,165.547119 241.968109,165.235519 
	C242.019577,165.489822 241.786407,165.774292 241.258911,166.084351 
z"/>
<path fill="#C4267F" opacity="1.000000" stroke="none" 
	d="
M340.316772,166.131592 
	C340.299164,165.950760 340.528534,165.761932 340.872925,165.721558 
	C340.987915,165.869995 340.563721,166.123611 340.316772,166.131592 
z"/>
<path fill="#B8267F" opacity="1.000000" stroke="none" 
	d="
M220.007202,175.562317 
	C219.378036,176.103607 218.845230,176.301300 218.145691,176.734711 
	C213.311295,178.159561 208.643616,179.348648 203.237930,180.725739 
	C203.237885,180.726349 203.119873,181.965759 203.000946,183.602585 
	C203.000000,184.000000 202.998779,184.001678 202.998779,184.001678 
	C200.164108,182.907700 196.041489,182.767822 198.411911,177.817993 
	C192.829727,174.849777 192.829727,174.849777 200.535599,168.225067 
	C197.491028,168.389801 195.501709,168.497452 192.423538,168.664017 
	C196.815018,164.905457 200.383835,161.850998 204.028214,158.453918 
	C207.207565,156.850571 210.389755,155.751373 213.397018,154.291779 
	C218.088150,152.014893 222.660645,149.493561 227.644531,147.041763 
	C227.350449,148.623871 226.695206,150.240021 225.535324,153.100906 
	C229.416412,152.657623 232.435593,152.312775 236.864624,151.806900 
	C234.779037,155.487625 232.948151,158.718842 230.777527,162.549622 
	C233.177460,162.549622 235.131912,162.939896 236.843262,162.461151 
	C239.640228,161.678726 240.049072,162.988663 239.984802,165.564407 
	C236.753265,167.420441 233.530182,168.883057 230.129456,170.638290 
	C228.069962,171.731018 226.188080,172.531143 224.124069,173.622620 
	C222.662460,174.348892 221.382996,174.783813 220.007202,175.562317 
z"/>
<path fill="#945660" opacity="1.000000" stroke="none" 
	d="
M276.278412,272.902863 
	C275.897736,272.429901 275.960144,272.073456 276.053711,271.449249 
	C277.751190,271.175201 279.417450,271.168854 281.498352,271.173920 
	C281.974213,271.539368 282.035431,271.893463 282.136780,272.514008 
	C280.358459,272.860107 278.539978,272.939728 276.278412,272.902863 
z"/>
<path fill="#A62C81" opacity="1.000000" stroke="none" 
	d="
M177.534058,194.391693 
	C177.650146,193.941772 177.933502,193.665924 178.234863,193.411407 
	C178.242599,193.404877 178.447784,193.632156 178.560867,193.750397 
	C178.275131,194.023117 177.989410,194.295837 177.534058,194.391693 
z"/>
<path fill="#B8267F" opacity="1.000000" stroke="none" 
	d="
M203.000854,183.999390 
	C203.122971,184.141342 203.244247,184.283936 203.365509,184.426514 
	C203.279434,184.377319 203.193359,184.328125 203.053040,184.140305 
	C202.998779,184.001678 203.000000,184.000000 203.000854,183.999390 
z"/>
<path fill="#EF7329" opacity="1.000000" stroke="none" 
	d="
M300.890839,309.529144 
	C300.530151,309.983612 300.273926,310.175598 300.000122,310.687256 
	C299.574127,310.994812 299.309662,311.181152 299.035034,311.706726 
	C297.498199,312.900574 296.046906,313.862244 294.284302,314.956085 
	C293.908356,314.105133 294.229126,312.585724 293.720520,312.220184 
	C287.249908,307.569427 284.794586,298.206909 275.447968,296.752258 
	C274.382385,296.586395 273.776917,293.463959 272.906433,291.291199 
	C272.504639,286.551819 272.154480,282.233612 271.798706,277.481384 
	C275.557831,277.035583 279.322540,277.023834 283.509430,277.377869 
	C284.461487,280.166656 284.296417,283.118347 285.658234,284.908539 
	C289.054077,289.372528 292.880005,293.604858 297.064911,297.333527 
	C299.223450,299.256744 302.515747,299.907440 305.295776,301.133118 
	C303.839447,303.813843 302.383148,306.494598 300.890839,309.529144 
z"/>
<path fill="#F47F26" opacity="1.000000" stroke="none" 
	d="
M305.475647,301.036865 
	C302.515747,299.907440 299.223450,299.256744 297.064911,297.333527 
	C292.880005,293.604858 289.054077,289.372528 285.658234,284.908539 
	C284.296417,283.118347 284.461487,280.166656 283.971680,277.392517 
	C291.673065,276.353180 298.719208,278.328613 305.227264,282.222260 
	C309.505615,284.781891 308.938568,289.230103 309.096802,293.800415 
	C308.779144,295.284424 308.414825,296.309357 307.790222,297.782410 
	C307.260986,298.445953 307.097473,298.723541 307.039398,299.063263 
	C307.039398,299.063263 307.000732,299.005615 306.779022,299.139465 
	C306.401978,299.603363 306.246643,299.933411 306.091309,300.263489 
	C306.035034,300.546539 305.889771,300.772247 305.475647,301.036865 
z"/>
<path fill="#EF7329" opacity="1.000000" stroke="none" 
	d="
M306.313812,300.109924 
	C306.246643,299.933411 306.401978,299.603363 306.810455,299.154175 
	C306.887848,299.342133 306.712067,299.649231 306.313812,300.109924 
z"/>
<path fill="#EF7329" opacity="1.000000" stroke="none" 
	d="
M307.271423,298.964996 
	C307.097473,298.723541 307.260986,298.445953 307.746521,298.115051 
	C307.809845,298.288635 307.656616,298.577667 307.271423,298.964996 
z"/>
</svg>