<svg version="1.1" id="Layer_1" xmlns="http://www.w3.org/2000/svg" xmlns:xlink="http://www.w3.org/1999/xlink" x="0px" y="0px"
	 width="100%" viewBox="0 0 499 499" enable-background="new 0 0 499 499" xml:space="preserve">
<path fill="#000000" opacity="1.000000" stroke="none" 
	d="
M323.000000,500.000000 
	C215.333359,500.000000 108.166718,500.000000 1.000057,500.000000 
	C1.000038,333.666718 1.000038,167.333466 1.000019,1.000147 
	C167.333237,1.000098 333.666473,1.000098 499.999756,1.000049 
	C499.999847,167.333191 499.999847,333.666382 499.999939,499.999786 
	C441.166656,500.000000 382.333344,500.000000 323.000000,500.000000 
M310.961914,231.445114 
	C310.664490,231.324738 310.367065,231.204361 309.297333,230.981354 
	C307.836121,230.765289 306.374908,230.549225 304.438995,230.140778 
	C304.279388,230.080093 304.119812,230.019394 304.028931,230.022186 
	C304.028931,230.022186 304.093079,229.954147 303.675079,229.173737 
	C297.242126,229.093353 290.778961,228.588501 284.384064,229.043213 
	C276.883606,229.576508 269.442505,230.944199 261.236481,231.973938 
	C252.441208,233.607574 243.645920,235.241211 233.949005,236.965668 
	C228.105133,237.061996 222.192581,237.532944 217.013428,233.044800 
	C217.272736,230.693527 217.532043,228.342270 218.088547,225.358261 
	C225.725266,220.505493 233.361969,215.652725 241.699173,210.730743 
	C246.112946,208.699097 250.604706,206.818436 254.917191,204.590683 
	C258.754242,202.608566 262.392670,200.241959 266.772461,197.988464 
	C268.265533,197.641541 269.847412,197.503021 271.236145,196.911224 
	C276.919464,194.489365 282.585693,192.018265 288.178314,189.394989 
	C293.853577,186.732941 299.434784,183.870377 305.824341,180.986969 
	C311.887360,178.612442 317.950409,176.237900 324.742462,173.761734 
	C344.464905,165.474854 364.187347,157.187958 384.518036,148.645493 
	C380.851349,147.268570 378.030853,146.020920 375.100220,145.139328 
	C355.473389,139.235168 335.821350,133.415024 316.181213,127.555061 
	C305.490051,124.365166 294.806244,121.150589 283.844849,117.381577 
	C283.253937,117.314369 282.663025,117.247162 281.395874,117.082878 
	C280.944153,117.034492 280.492432,116.986107 279.726166,116.247787 
	C268.021881,112.697250 256.317596,109.146713 243.790955,105.346710 
	C246.457352,114.876266 248.895264,123.363609 251.129517,131.904236 
	C251.367142,132.812607 250.412781,134.032791 249.314041,134.949615 
	C248.193207,135.621201 247.072372,136.292786 245.484695,137.043777 
	C245.484695,137.043777 245.031143,137.179840 244.303329,137.062271 
	C242.186813,137.996262 240.070282,138.930267 237.211060,139.978073 
	C218.066467,148.524582 198.984009,157.178894 182.346741,171.343552 
	C177.771606,175.782181 173.014130,180.051178 168.678391,184.712479 
	C165.134720,188.522232 162.094299,192.800125 158.311539,197.135117 
	C157.686966,198.521332 157.062408,199.907532 156.369385,201.287186 
	C156.369385,201.287186 156.363708,201.355698 156.072952,201.954269 
	C143.486237,220.389923 146.586044,260.505493 161.727219,269.748596 
	C161.727219,267.928986 161.674774,266.560760 161.735748,265.197601 
	C162.120575,256.594299 161.867004,247.895142 163.106735,239.415131 
	C164.532455,229.662781 169.562424,221.150681 175.684982,212.767548 
	C178.835876,209.294647 181.879120,205.715698 185.166946,202.377670 
	C188.682068,198.808884 192.427872,195.467300 196.708115,191.760132 
	C211.525620,183.524155 226.354309,175.308136 241.140900,167.017044 
	C242.425598,166.296692 243.747986,165.277832 244.507889,164.058105 
	C246.519974,160.828400 248.232986,157.412369 250.848999,153.953552 
	C253.242081,153.334457 255.635178,152.715347 258.460846,152.038574 
	C258.460846,152.038574 258.896881,152.055511 259.203979,152.683685 
	C260.026550,153.200668 260.801331,153.824661 261.679657,154.216675 
	C266.203278,156.235703 268.798401,160.437759 268.561401,164.607422 
	C268.300507,169.197891 265.611542,173.672363 260.385315,176.094986 
	C259.667053,176.452713 258.948822,176.810440 257.437866,177.002548 
	C256.379089,177.050674 255.320297,177.098816 253.523422,176.949326 
	C248.816727,174.655991 244.475433,172.031433 238.819031,175.481796 
	C232.198303,179.520386 225.004120,182.618881 217.373810,186.279617 
	C206.015594,192.963531 194.917084,199.993942 185.331299,210.157898 
	C183.870026,212.093231 182.408752,214.028564 180.988663,215.992508 
	C180.988663,215.992508 180.958481,215.951416 180.332687,216.311859 
	C173.038620,224.377548 169.183105,234.416885 167.382736,244.612976 
	C165.774765,253.719376 167.062637,263.368835 167.447876,272.763275 
	C167.509827,274.274475 169.235687,276.179138 170.697830,277.094543 
	C178.784454,282.157288 187.858124,283.028290 197.742432,282.898804 
	C198.154297,282.871674 198.566177,282.844574 199.651520,282.941498 
	C200.104980,282.902710 200.558426,282.863922 201.876740,282.959686 
	C204.928345,282.623779 207.994736,282.386383 211.028351,281.930756 
	C216.738266,281.073120 222.429260,280.089630 228.933487,279.019379 
	C241.984711,276.735992 255.035934,274.452606 268.301117,272.705444 
	C268.596008,274.094208 268.890900,275.482971 269.032379,277.725739 
	C269.426727,282.155151 269.821075,286.584595 270.054108,291.795166 
	C268.753296,295.882538 267.452484,299.969940 266.015503,304.767609 
	C262.646240,309.813843 259.277008,314.860077 255.927444,319.968903 
	C255.927444,319.968903 255.977341,319.926758 255.469788,320.070160 
	C255.373184,320.374237 255.276566,320.678284 254.902451,321.610107 
	C250.574448,325.707672 246.246460,329.805267 241.332596,334.203705 
	C239.802155,335.792175 238.271729,337.380615 236.136581,338.971252 
	C235.418030,339.639862 234.699463,340.308472 234.000000,341.000000 
	C234.000000,341.000000 233.979324,340.978058 233.493942,341.124695 
	C233.308380,341.399475 233.122818,341.674225 232.893616,341.905121 
	C232.893616,341.905121 232.857651,341.955505 232.228760,341.964996 
	C231.475754,342.622803 230.722748,343.280609 229.948074,343.946625 
	C229.948074,343.946625 229.938110,343.967529 229.473633,344.120331 
	C229.179520,344.310883 229.009109,344.579895 228.895950,344.908020 
	C228.895950,344.908020 228.878067,344.974884 228.231903,344.994202 
	C227.166153,345.980011 226.100388,346.965851 224.955353,347.935150 
	C224.955353,347.935150 224.930359,348.012207 224.221008,348.018799 
	C207.859665,357.743225 191.498322,367.467651 175.136978,377.192078 
	C175.374542,377.708313 175.612091,378.224579 175.849655,378.740814 
	C195.656158,373.093750 214.512192,364.946075 233.699036,355.756592 
	C240.438782,352.119263 247.178543,348.481934 254.533676,344.910492 
	C255.038406,344.296906 255.543137,343.683319 256.499451,342.936798 
	C256.499451,342.936798 256.949768,342.799744 257.652924,342.786133 
	C263.447235,338.914001 269.241547,335.041870 275.742157,331.013275 
	C278.518738,328.687744 281.295319,326.362183 284.776886,323.991516 
	C287.881317,321.010803 290.985748,318.030121 294.793243,314.941864 
	C299.110535,313.305237 301.801880,310.197906 303.615936,305.858276 
	C305.773834,304.292633 308.321442,303.058197 309.999176,301.084412 
	C312.576233,298.052521 314.372131,294.370178 316.820984,291.213287 
	C326.120361,279.225311 329.837646,265.617218 327.810760,250.748016 
	C327.294556,246.961182 324.027710,243.549286 322.003601,240.004288 
	C322.003601,240.004288 322.037750,239.973923 321.718903,239.409424 
	C320.210754,237.903931 318.702606,236.398438 317.189056,234.814514 
	C317.189056,234.814514 317.110596,234.810013 316.853424,234.246155 
	C315.910217,233.896149 314.967041,233.546143 313.533112,233.125076 
	C313.533112,233.125076 313.061371,232.972290 312.822418,232.386612 
	C312.218781,232.229355 311.615173,232.072083 311.032288,231.977554 
	C311.032288,231.977554 311.090668,231.946564 310.961914,231.445114 
z"/>
<path fill="#CD257D" opacity="1.000000" stroke="none" 
	d="
M284.119141,117.947144 
	C294.806244,121.150589 305.490051,124.365166 316.181213,127.555061 
	C335.821350,133.415024 355.473389,139.235168 375.100220,145.139328 
	C378.030853,146.020920 380.851349,147.268570 384.518036,148.645493 
	C364.187347,157.187958 344.464905,165.474854 324.227600,173.518906 
	C318.655334,164.915421 312.115417,158.041748 304.113464,152.341675 
	C300.539124,149.795563 298.395630,145.106735 294.702942,142.887863 
	C286.222565,137.792145 281.496948,130.220474 278.377075,121.354195 
	C277.977234,120.217873 279.440521,118.425949 280.040710,116.937729 
	C280.492432,116.986107 280.944153,117.034492 281.972382,117.266556 
	C283.072296,117.615868 283.595734,117.781509 284.119141,117.947144 
z"/>
<path fill="#C6257F" opacity="1.000000" stroke="none" 
	d="
M279.883423,116.592758 
	C279.440521,118.425949 277.977234,120.217873 278.377075,121.354195 
	C281.496948,130.220474 286.222565,137.792145 294.702942,142.887863 
	C298.395630,145.106735 300.539124,149.795563 304.113464,152.341675 
	C312.115417,158.041748 318.655334,164.915421 323.863098,173.569717 
	C317.950409,176.237900 311.887360,178.612442 305.175659,180.906067 
	C300.252533,179.109741 294.838898,178.482407 291.942963,175.450363 
	C286.076752,169.308472 276.825775,165.918839 275.048920,156.146881 
	C274.903198,155.345444 273.678528,154.768997 273.025238,154.026382 
	C268.874664,149.308365 263.660034,152.314911 258.896881,152.055511 
	C258.896881,152.055511 258.460846,152.038574 258.076477,151.782104 
	C255.417969,151.195129 253.143814,150.864624 251.899170,150.683746 
	C249.459183,145.886246 247.245163,141.533035 245.031143,137.179840 
	C245.031143,137.179840 245.484695,137.043777 246.063538,136.994232 
	C247.765366,136.332565 248.888382,135.720444 250.011414,135.108322 
	C250.412781,134.032791 251.367142,132.812607 251.129517,131.904236 
	C248.895264,123.363609 246.457352,114.876266 243.790955,105.346710 
	C256.317596,109.146713 268.021881,112.697250 279.883423,116.592758 
z"/>
<path fill="#A32B83" opacity="1.000000" stroke="none" 
	d="
M197.137421,282.754303 
	C187.858124,283.028290 178.784454,282.157288 170.697830,277.094543 
	C169.235687,276.179138 167.509827,274.274475 167.447876,272.763275 
	C167.062637,263.368835 165.774765,253.719376 167.382736,244.612976 
	C169.183105,234.416885 173.038620,224.377548 180.733658,216.476440 
	C183.174362,219.829117 185.133484,223.073212 187.291779,226.178909 
	C188.210541,227.500946 189.481140,228.607193 190.705261,229.682404 
	C193.433121,232.078400 196.232376,234.393127 199.002533,236.740967 
	C198.741287,236.969559 198.480026,237.198135 198.218781,237.426712 
	C200.386368,237.426712 202.553970,237.426712 204.577667,237.746506 
	C198.474503,246.595383 192.727676,255.333862 193.751633,266.345490 
	C194.265549,271.872253 195.970886,277.288239 197.137421,282.754303 
z"/>
<path fill="#AE2981" opacity="1.000000" stroke="none" 
	d="
M204.721573,237.426712 
	C202.553970,237.426712 200.386368,237.426712 198.218781,237.426712 
	C198.480026,237.198135 198.741287,236.969559 199.002533,236.740967 
	C196.232376,234.393127 193.433121,232.078400 190.705261,229.682404 
	C189.481140,228.607193 188.210541,227.500946 187.291779,226.178909 
	C185.133484,223.073212 183.174362,219.829117 181.046555,216.296219 
	C180.958481,215.951416 180.988663,215.992508 181.290237,215.892380 
	C183.038544,213.809601 184.485275,211.826935 185.932007,209.844284 
	C194.917084,199.993942 206.015594,192.963531 217.733627,186.463715 
	C216.863449,187.876221 215.296982,188.921326 214.499390,190.385315 
	C213.722855,191.810699 212.872055,194.469299 213.547012,195.192062 
	C216.526398,198.382446 220.024002,201.093964 223.374802,203.930664 
	C225.716873,205.913422 228.478271,207.524750 230.402573,209.841660 
	C232.261154,212.079453 233.730270,212.437286 236.271530,211.210266 
	C237.602905,210.567459 239.407700,210.905106 240.998688,210.799957 
	C233.361969,215.652725 225.725266,220.505493 217.598984,225.709976 
	C212.980133,229.850021 208.850845,233.638367 204.721573,237.426712 
z"/>
<path fill="#B62880" opacity="1.000000" stroke="none" 
	d="
M250.065002,154.070480 
	C248.232986,157.412369 246.519974,160.828400 244.507889,164.058105 
	C243.747986,165.277832 242.425598,166.296692 241.140900,167.017044 
	C226.354309,175.308136 211.525620,183.524155 196.037308,191.805679 
	C191.283157,185.466537 187.189941,179.088089 183.141830,172.681137 
	C182.908127,172.311295 183.041138,171.709732 183.003479,171.216019 
	C198.984009,157.178894 218.066467,148.524582 237.432739,140.227936 
	C233.460083,142.730713 229.269699,144.991058 225.070328,147.234543 
	C220.591660,149.627243 220.664948,151.186096 224.685608,154.188354 
	C226.776031,155.749298 228.849014,157.974213 229.736053,160.345734 
	C230.873276,163.386108 231.381821,167.110519 235.215347,166.866638 
	C238.924393,166.630692 242.553101,165.196457 243.338684,160.288239 
	C243.891174,156.836288 246.091171,154.268234 250.065002,154.070480 
z"/>
<path fill="#3E5A9F" opacity="1.000000" stroke="none" 
	d="
M261.975647,231.950012 
	C269.442505,230.944199 276.883606,229.576508 284.384064,229.043213 
	C290.778961,228.588501 297.242126,229.093353 303.522278,229.620361 
	C301.535156,231.611328 299.596741,233.049484 297.888794,234.722794 
	C294.619141,237.926102 291.502014,241.284439 288.279449,244.536728 
	C286.292297,246.542236 284.156952,248.403687 282.211639,250.447388 
	C278.005890,254.865891 274.051605,259.539032 269.659546,263.759460 
	C266.807037,266.500488 265.532501,268.839508 268.722961,271.967712 
	C268.516296,272.048981 268.087158,272.169189 268.087158,272.169189 
	C255.035934,274.452606 241.984711,276.735992 228.358185,278.916687 
	C227.822815,278.146667 227.745041,276.933716 227.920746,276.895813 
	C229.863754,276.476654 231.942062,276.514038 233.787842,275.868103 
	C235.295120,275.340668 237.491791,274.248749 237.729050,273.073334 
	C238.665482,268.433990 241.238632,265.516907 245.108582,262.982422 
	C247.816208,261.209137 249.731262,258.250519 252.085449,255.906799 
	C255.363022,252.643799 258.199310,248.331650 262.163055,246.503143 
	C268.402710,243.624725 270.818420,238.295547 274.513672,232.818680 
	C269.920197,232.500427 265.947906,232.225204 261.975647,231.950012 
z"/>
<path fill="#B6267F" opacity="1.000000" stroke="none" 
	d="
M241.348938,210.765350 
	C239.407700,210.905106 237.602905,210.567459 236.271530,211.210266 
	C233.730270,212.437286 232.261154,212.079453 230.402573,209.841660 
	C228.478271,207.524750 225.716873,205.913422 223.374802,203.930664 
	C220.024002,201.093964 216.526398,198.382446 213.547012,195.192062 
	C212.872055,194.469299 213.722855,191.810699 214.499390,190.385315 
	C215.296982,188.921326 216.863449,187.876221 218.076080,186.386505 
	C225.004120,182.618881 232.198303,179.520386 238.819031,175.481796 
	C244.475433,172.031433 248.816727,174.655991 254.064178,177.216583 
	C254.741348,180.165222 254.915955,182.845276 255.006683,185.528198 
	C255.230347,192.141891 259.524445,197.000244 266.118774,198.045074 
	C262.392670,200.241959 258.754242,202.608566 254.917191,204.590683 
	C250.604706,206.818436 246.112946,208.699097 241.348938,210.765350 
z"/>
<path fill="#4364A5" opacity="1.000000" stroke="none" 
	d="
M261.606079,231.961975 
	C265.947906,232.225204 269.920197,232.500427 274.513672,232.818680 
	C270.818420,238.295547 268.402710,243.624725 262.163055,246.503143 
	C258.199310,248.331650 255.363022,252.643799 252.085449,255.906799 
	C249.731262,258.250519 247.816208,261.209137 245.108582,262.982422 
	C241.238632,265.516907 238.665482,268.433990 237.729050,273.073334 
	C237.491791,274.248749 235.295120,275.340668 233.787842,275.868103 
	C231.942062,276.514038 229.863754,276.476654 227.920746,276.895813 
	C227.745041,276.933716 227.822815,278.146667 227.955505,278.986206 
	C222.429260,280.089630 216.738266,281.073120 211.028351,281.930756 
	C207.994736,282.386383 204.928345,282.623779 201.584778,282.571045 
	C206.243011,279.462921 211.677750,277.483246 214.995941,272.401031 
	C217.262665,268.929260 219.442673,265.282349 222.307388,262.343384 
	C228.899704,255.580200 235.918350,249.234253 242.689316,242.642273 
	C244.305191,241.069092 245.628342,239.195236 247.577332,236.874847 
	C242.736908,236.874847 238.793777,236.874847 234.850647,236.874847 
	C243.645920,235.241211 252.441208,233.607574 261.606079,231.961975 
z"/>
<path fill="#374996" opacity="1.000000" stroke="none" 
	d="
M322.024719,239.965118 
	C324.027710,243.549286 327.294556,246.961182 327.810760,250.748016 
	C329.837646,265.617218 326.120361,279.225311 316.820984,291.213287 
	C314.372131,294.370178 312.576233,298.052521 309.999176,301.084412 
	C308.321442,303.058197 305.773834,304.292633 303.283203,305.663391 
	C303.284851,305.002655 303.619232,304.536865 304.266418,303.907837 
	C306.209229,301.084534 308.109131,298.549316 309.410309,295.737061 
	C311.781097,290.613068 313.498077,284.667480 308.705414,280.584930 
	C304.642029,277.123566 299.009918,275.503784 294.078796,272.662842 
	C295.530182,268.276794 296.451416,263.989777 298.559052,260.399200 
	C300.907593,256.398163 304.317566,253.015945 307.302643,249.394974 
	C308.340302,248.136246 309.267090,246.536957 310.627228,245.838684 
	C315.179108,243.501892 316.823273,239.628815 317.194458,234.892944 
	C318.702606,236.398438 320.210754,237.903931 321.574341,239.755005 
	C320.843964,240.882202 320.258087,241.663818 319.672241,242.445435 
	C320.151093,242.664307 320.629944,242.883179 321.108795,243.102036 
	C321.414093,242.056396 321.719421,241.010742 322.024719,239.965118 
z"/>
<path fill="#C0267F" opacity="1.000000" stroke="none" 
	d="
M266.445618,198.016769 
	C259.524445,197.000244 255.230347,192.141891 255.006683,185.528198 
	C254.915955,182.845276 254.741348,180.165222 254.433228,177.315399 
	C255.320297,177.098816 256.379089,177.050674 258.039307,177.207794 
	C259.431274,177.000717 260.221802,176.588409 261.012329,176.176117 
	C265.611542,173.672363 268.300507,169.197891 268.561401,164.607422 
	C268.798401,160.437759 266.203278,156.235703 261.679657,154.216675 
	C260.801331,153.824661 260.026550,153.200668 259.050415,152.369598 
	C263.660034,152.314911 268.874664,149.308365 273.025238,154.026382 
	C273.678528,154.768997 274.903198,155.345444 275.048920,156.146881 
	C276.825775,165.918839 286.076752,169.308472 291.942963,175.450363 
	C294.838898,178.482407 300.252533,179.109741 304.792084,180.960388 
	C299.434784,183.870377 293.853577,186.732941 288.178314,189.394989 
	C282.585693,192.018265 276.919464,194.489365 271.236145,196.911224 
	C269.847412,197.503021 268.265533,197.641541 266.445618,198.016769 
z"/>
<path fill="#466BA9" opacity="1.000000" stroke="none" 
	d="
M234.399826,236.920258 
	C238.793777,236.874847 242.736908,236.874847 247.577332,236.874847 
	C245.628342,239.195236 244.305191,241.069092 242.689316,242.642273 
	C235.918350,249.234253 228.899704,255.580200 222.307388,262.343384 
	C219.442673,265.282349 217.262665,268.929260 214.995941,272.401031 
	C211.677750,277.483246 206.243011,279.462921 201.152359,282.503784 
	C200.558426,282.863922 200.104980,282.902710 199.227692,282.508453 
	C198.263855,277.679504 196.864105,273.184937 197.355225,268.907410 
	C198.531235,258.664612 202.795013,249.634872 210.189163,242.179550 
	C212.707016,239.640900 214.768661,236.649780 217.038757,233.865417 
	C222.192581,237.532944 228.105133,237.061996 234.399826,236.920258 
z"/>
<path fill="#3A519C" opacity="1.000000" stroke="none" 
	d="
M317.191772,234.853729 
	C316.823273,239.628815 315.179108,243.501892 310.627228,245.838684 
	C309.267090,246.536957 308.340302,248.136246 307.302643,249.394974 
	C304.317566,253.015945 300.907593,256.398163 298.559052,260.399200 
	C296.451416,263.989777 295.530182,268.276794 293.659119,272.583191 
	C285.131653,272.568695 277.030640,272.227570 268.929657,271.886475 
	C265.532501,268.839508 266.807037,266.500488 269.659546,263.759460 
	C274.051605,259.539032 278.005890,254.865891 282.211639,250.447388 
	C284.156952,248.403687 286.292297,246.542236 288.279449,244.536728 
	C291.502014,241.284439 294.619141,237.926102 297.888794,234.722794 
	C299.596741,233.049484 301.535156,231.611328 303.731262,230.010559 
	C304.093079,229.954147 304.028931,230.022186 304.112061,230.044647 
	C304.422028,230.189331 304.661530,230.278015 304.913696,230.333145 
	C306.374908,230.549225 307.836121,230.765289 309.848572,231.181396 
	C310.621704,231.580093 310.851990,231.768463 311.090668,231.946564 
	C311.090668,231.946564 311.032288,231.977554 311.253571,232.122742 
	C312.003693,232.502701 312.532532,232.737488 313.061371,232.972290 
	C313.061371,232.972290 313.533112,233.125076 313.947632,233.417419 
	C315.278290,234.076508 316.194427,234.443268 317.110596,234.810028 
	C317.110596,234.810013 317.189056,234.814514 317.191772,234.853729 
z"/>
<path fill="#A32B83" opacity="1.000000" stroke="none" 
	d="
M175.048752,213.029205 
	C169.562424,221.150681 164.532455,229.662781 163.106735,239.415131 
	C161.867004,247.895142 162.120575,256.594299 161.735748,265.197601 
	C161.674774,266.560760 161.727219,267.928986 161.727219,269.748596 
	C146.586044,260.505493 143.486237,220.389923 156.429062,201.985352 
	C162.528717,206.258362 166.655945,213.180786 175.048752,213.029205 
z"/>
<path fill="#AE2981" opacity="1.000000" stroke="none" 
	d="
M175.366867,212.898376 
	C166.655945,213.180786 162.528717,206.258362 156.574432,201.686066 
	C156.363708,201.355698 156.369385,201.287186 156.757401,201.252960 
	C157.707199,199.769318 158.268982,198.319901 158.830765,196.870468 
	C162.094299,192.800125 165.134720,188.522232 168.678391,184.712479 
	C173.014130,180.051178 177.771606,175.782181 182.675110,171.279785 
	C183.041138,171.709732 182.908127,172.311295 183.141830,172.681137 
	C187.189941,179.088089 191.283157,185.466537 195.719742,191.938889 
	C192.427872,195.467300 188.682068,198.808884 185.166946,202.377670 
	C181.879120,205.715698 178.835876,209.294647 175.366867,212.898376 
z"/>
<path fill="#EF7228" opacity="1.000000" stroke="none" 
	d="
M303.953613,304.071045 
	C303.619232,304.536865 303.284851,305.002655 303.007263,305.633179 
	C301.801880,310.197906 299.110535,313.305237 294.343079,314.738831 
	C293.145782,313.108643 292.519531,311.600983 291.631714,310.267517 
	C286.143829,302.025085 277.563477,297.201630 270.215454,291.014008 
	C269.821075,286.584595 269.426727,282.155151 269.559265,277.320679 
	C274.042389,276.925476 277.998627,276.935303 282.005554,277.324951 
	C285.835724,288.973114 294.328979,295.989563 303.956848,302.330994 
	C303.956451,303.142670 303.955048,303.606842 303.953613,304.071045 
z"/>
<path fill="#C0267F" opacity="1.000000" stroke="none" 
	d="
M250.457001,154.012024 
	C246.091171,154.268234 243.891174,156.836288 243.338684,160.288239 
	C242.553101,165.196457 238.924393,166.630692 235.215347,166.866638 
	C231.381821,167.110519 230.873276,163.386108 229.736053,160.345734 
	C228.849014,157.974213 226.776031,155.749298 224.685608,154.188354 
	C220.664948,151.186096 220.591660,149.627243 225.070328,147.234543 
	C229.269699,144.991058 233.460083,142.730713 237.804077,140.171036 
	C240.070282,138.930267 242.186813,137.996262 244.667236,137.121063 
	C247.245163,141.533035 249.459183,145.886246 251.899170,150.683746 
	C253.143814,150.864624 255.417969,151.195129 257.860199,151.810944 
	C255.635178,152.715347 253.242081,153.334457 250.457001,154.012024 
z"/>
<path fill="#EE672A" opacity="1.000000" stroke="none" 
	d="
M270.134766,291.404602 
	C277.563477,297.201630 286.143829,302.025085 291.631714,310.267517 
	C292.519531,311.600983 293.145782,313.108643 293.991547,314.792603 
	C290.985748,318.030121 287.881317,321.010803 284.223541,323.736084 
	C277.830688,317.006226 271.991211,310.531769 266.151703,304.057312 
	C267.452484,299.969940 268.753296,295.882538 270.134766,291.404602 
z"/>
<path fill="#E0302C" opacity="1.000000" stroke="none" 
	d="
M232.994339,355.814758 
	C214.512192,364.946075 195.656158,373.093750 175.849655,378.740814 
	C175.612091,378.224579 175.374542,377.708313 175.136978,377.192078 
	C191.498322,367.467651 207.859665,357.743225 224.592789,348.445770 
	C225.135742,351.238892 225.306915,353.605042 225.466782,355.814758 
	C228.426361,355.814758 230.710358,355.814758 232.994339,355.814758 
z"/>
<path fill="#EB592A" opacity="1.000000" stroke="none" 
	d="
M266.083618,304.412476 
	C271.991211,310.531769 277.830688,317.006226 283.871033,323.758667 
	C281.295319,326.362183 278.518738,328.687744 275.109009,330.992188 
	C268.445282,332.522186 265.402344,328.661530 262.740875,324.343567 
	C261.122925,321.718597 259.661438,319.122681 255.907745,319.906311 
	C259.277008,314.860077 262.646240,309.813843 266.083618,304.412476 
z"/>
<path fill="#E94C2B" opacity="1.000000" stroke="none" 
	d="
M255.917603,319.937622 
	C259.661438,319.122681 261.122925,321.718597 262.740875,324.343567 
	C265.402344,328.661530 268.445282,332.522186 274.755859,331.070435 
	C269.241547,335.041870 263.447235,338.914001 257.397095,342.558105 
	C257.404114,341.612427 257.666931,340.894745 258.061096,339.818451 
	C250.858139,343.593933 250.934082,343.537415 246.163055,337.125275 
	C245.144440,335.756317 243.353577,334.961914 241.918472,333.902832 
	C246.246460,329.805267 250.574448,325.707672 255.186798,321.130188 
	C255.652832,320.418182 255.821564,320.177002 255.977341,319.926758 
	C255.977341,319.926758 255.927444,319.968903 255.917603,319.937622 
z"/>
<path fill="#E73C2B" opacity="1.000000" stroke="none" 
	d="
M241.625534,334.053284 
	C243.353577,334.961914 245.144440,335.756317 246.163055,337.125275 
	C250.934082,343.537415 250.858139,343.593933 258.061096,339.818451 
	C257.666931,340.894745 257.404114,341.612427 257.045532,342.564941 
	C256.949768,342.799744 256.499451,342.936798 255.997833,343.085266 
	C254.970245,343.770691 254.444275,344.307648 253.918304,344.844604 
	C247.178543,348.481934 240.438782,352.119263 233.346680,355.785675 
	C230.710358,355.814758 228.426361,355.814758 225.466782,355.814758 
	C225.306915,353.605042 225.135742,351.238892 224.947464,348.442474 
	C224.930359,348.012207 224.955353,347.935150 225.332886,347.916687 
	C226.766281,346.923737 227.822174,345.949310 228.878067,344.974884 
	C228.878067,344.974884 228.895950,344.908020 229.109344,344.775513 
	C229.552979,344.440704 229.758102,344.215576 229.938110,343.967529 
	C229.938110,343.967529 229.948074,343.946625 230.270782,343.895691 
	C231.348206,343.215027 232.102936,342.585266 232.857651,341.955505 
	C232.857651,341.955505 232.893616,341.905121 233.105408,341.782074 
	C233.561890,341.455353 233.782593,341.228363 233.979324,340.978058 
	C233.979324,340.978058 234.000000,341.000000 234.300583,340.936096 
	C235.314545,340.237823 236.027924,339.603455 236.741302,338.969086 
	C238.271729,337.380615 239.802155,335.792175 241.625534,334.053284 
z"/>
<path fill="#3E5A9F" opacity="1.000000" stroke="none" 
	d="
M217.026093,233.455109 
	C214.768661,236.649780 212.707016,239.640900 210.189163,242.179550 
	C202.795013,249.634872 198.531235,258.664612 197.355225,268.907410 
	C196.864105,273.184937 198.263855,277.679504 198.890961,282.446411 
	C198.566177,282.844574 198.154297,282.871674 197.439926,282.826538 
	C195.970886,277.288239 194.265549,271.872253 193.751633,266.345490 
	C192.727676,255.333862 198.474503,246.595383 204.577667,237.746506 
	C208.850845,233.638367 212.980133,229.850021 217.450378,226.026337 
	C217.532043,228.342270 217.272736,230.693527 217.026093,233.455109 
z"/>
<path fill="#E94C2B" opacity="1.000000" stroke="none" 
	d="
M281.954865,276.945129 
	C277.998627,276.935303 274.042389,276.925476 269.635956,276.893677 
	C268.890900,275.482971 268.596008,274.094208 268.194153,272.437317 
	C268.087158,272.169189 268.516296,272.048981 268.722961,271.967712 
	C277.030640,272.227570 285.131653,272.568695 293.652313,272.989441 
	C299.009918,275.503784 304.642029,277.123566 308.705414,280.584930 
	C313.498077,284.667480 311.781097,290.613068 309.410309,295.737061 
	C308.109131,298.549316 306.209229,301.084534 304.266449,303.907837 
	C303.955048,303.606842 303.956451,303.142670 304.078186,301.995300 
	C304.699799,300.457153 305.197296,299.599854 305.703064,298.747498 
	C311.041504,289.750916 308.138367,281.139313 298.183807,278.488251 
	C293.004547,277.108917 287.378876,277.405548 281.954865,276.945129 
z"/>
<path fill="#A32B83" opacity="1.000000" stroke="none" 
	d="
M185.631653,210.001099 
	C184.485275,211.826935 183.038544,213.809601 181.269653,215.878082 
	C182.408752,214.028564 183.870026,212.093231 185.631653,210.001099 
z"/>
<path fill="#A32B83" opacity="1.000000" stroke="none" 
	d="
M158.571152,197.002792 
	C158.268982,198.319901 157.707199,199.769318 156.791626,201.256241 
	C157.062408,199.907532 157.686966,198.521332 158.571152,197.002792 
z"/>
<path fill="#E0302C" opacity="1.000000" stroke="none" 
	d="
M228.554993,344.984558 
	C227.822174,345.949310 226.766281,346.923737 225.372513,347.924927 
	C226.100388,346.965851 227.166153,345.980011 228.554993,344.984558 
z"/>
<path fill="#C0267F" opacity="1.000000" stroke="none" 
	d="
M249.662720,135.028961 
	C248.888382,135.720444 247.765366,136.332565 246.296951,136.954529 
	C247.072372,136.292786 248.193207,135.621201 249.662720,135.028961 
z"/>
<path fill="#B6267F" opacity="1.000000" stroke="none" 
	d="
M260.698822,176.135544 
	C260.221802,176.588409 259.431274,177.000717 258.435669,177.290588 
	C258.948822,176.810440 259.667053,176.452713 260.698822,176.135544 
z"/>
<path fill="#E0302C" opacity="1.000000" stroke="none" 
	d="
M232.543213,341.960266 
	C232.102936,342.585266 231.348206,343.215027 230.281616,343.891602 
	C230.722748,343.280609 231.475754,342.622803 232.543213,341.960266 
z"/>
<path fill="#E0302C" opacity="1.000000" stroke="none" 
	d="
M236.438934,338.970154 
	C236.027924,339.603455 235.314545,340.237823 234.291031,340.924622 
	C234.699463,340.308472 235.418030,339.639862 236.438934,338.970154 
z"/>
<path fill="#374996" opacity="1.000000" stroke="none" 
	d="
M316.981995,234.528091 
	C316.194427,234.443268 315.278290,234.076508 314.192993,233.452942 
	C314.967041,233.546143 315.910217,233.896149 316.981995,234.528091 
z"/>
<path fill="#E94C2B" opacity="1.000000" stroke="none" 
	d="
M254.225998,344.877563 
	C254.444275,344.307648 254.970245,343.770691 255.772034,343.151733 
	C255.543137,343.683319 255.038406,344.296906 254.225998,344.877563 
z"/>
<path fill="#C6257F" opacity="1.000000" stroke="none" 
	d="
M283.981995,117.664368 
	C283.595734,117.781509 283.072296,117.615868 282.310486,117.315094 
	C282.663025,117.247162 283.253937,117.314369 283.981995,117.664368 
z"/>
<path fill="#374996" opacity="1.000000" stroke="none" 
	d="
M312.941895,232.679443 
	C312.532532,232.737488 312.003693,232.502701 311.243195,232.091370 
	C311.615173,232.072083 312.218781,232.229355 312.941895,232.679443 
z"/>
<path fill="#E0302C" opacity="1.000000" stroke="none" 
	d="
M233.736633,341.051392 
	C233.782593,341.228363 233.561890,341.455353 233.127228,341.804016 
	C233.122818,341.674225 233.308380,341.399475 233.736633,341.051392 
z"/>
<path fill="#EB592A" opacity="1.000000" stroke="none" 
	d="
M255.723572,319.998474 
	C255.821564,320.177002 255.652832,320.418182 255.325562,320.816315 
	C255.276566,320.678284 255.373184,320.374237 255.723572,319.998474 
z"/>
<path fill="#3E5A9F" opacity="1.000000" stroke="none" 
	d="
M304.676331,230.236969 
	C304.661530,230.278015 304.422028,230.189331 304.077728,230.012909 
	C304.119812,230.019394 304.279388,230.080093 304.676331,230.236969 
z"/>
<path fill="#E0302C" opacity="1.000000" stroke="none" 
	d="
M229.705872,344.043945 
	C229.758102,344.215576 229.552979,344.440704 229.142578,344.785156 
	C229.009109,344.579895 229.179520,344.310883 229.705872,344.043945 
z"/>
<path fill="#374996" opacity="1.000000" stroke="none" 
	d="
M311.026306,231.695831 
	C310.851990,231.768463 310.621704,231.580093 310.234741,231.232712 
	C310.367065,231.204361 310.664490,231.324738 311.026306,231.695831 
z"/>
<path fill="#3A519C" opacity="1.000000" stroke="none" 
	d="
M322.014160,239.984695 
	C321.719421,241.010742 321.414093,242.056396 321.108795,243.102036 
	C320.629944,242.883179 320.151093,242.664307 319.672241,242.445435 
	C320.258087,241.663818 320.843964,240.882202 321.733765,240.037262 
	C322.037750,239.973923 322.003601,240.004288 322.014160,239.984695 
z"/>
<path fill="#F37F25" opacity="1.000000" stroke="none" 
	d="
M282.005554,277.324951 
	C287.378876,277.405548 293.004547,277.108917 298.183807,278.488251 
	C308.138367,281.139313 311.041504,289.750916 305.703064,298.747498 
	C305.197296,299.599854 304.699799,300.457153 304.077148,301.647827 
	C294.328979,295.989563 285.835724,288.973114 282.005554,277.324951 
z"/>
</svg>